<svg width="53" height="46" viewBox="0 0 53 46" fill="none" xmlns="http://www.w3.org/2000/svg">
<g filter="url(#filter0_d_169_1311)">
<path d="M4 10.3755C4 7.61408 6.23858 5.3755 9 5.3755H44C46.7614 5.3755 49 7.61408 49 10.3755V32.1182C49 34.8797 46.7614 37.1182 44 37.1182H9C6.23858 37.1182 4 34.8797 4 32.1182V10.3755Z" fill="#D9D9D9"/>
<path d="M4 10.3755C4 7.61408 6.23858 5.3755 9 5.3755H26.5V15.4585H4V10.3755Z" fill="#FF6D3A"/>
<path d="M26.5 5.3755H44C46.7614 5.3755 49 7.61408 49 10.3755V15.4585H26.5V5.3755Z" fill="#FF4E66"/>
<path d="M37.1064 10.9386C37.6503 10.8429 38.0137 10.3243 37.9179 9.78042C37.8222 9.2365 37.3036 8.87317 36.7597 8.9689L37.1064 10.9386ZM32.0546 6.79664L33.05 6.70133L32.0546 6.79664ZM36.2432 1.0028L36.2717 0.00321013L36.2432 1.0028ZM36.7597 8.9689C36.2834 9.05274 35.338 8.98148 34.5007 8.58708C33.6999 8.20987 33.1375 7.61473 33.05 6.70133L31.0591 6.89196C31.2335 8.71315 32.4205 9.818 33.6485 10.3964C34.84 10.9576 36.2029 11.0976 37.1064 10.9386L36.7597 8.9689ZM33.05 6.70133C32.9098 5.23668 33.0623 4.01468 33.534 3.20721C33.949 2.49676 34.696 1.95905 36.2147 2.0024L36.2717 0.00321013C34.1438 -0.0575239 32.6486 0.757817 31.8071 2.19837C31.0222 3.54191 30.9037 5.26887 31.0591 6.89196L33.05 6.70133ZM36.2147 2.0024C37.4751 2.03837 38.08 2.43081 38.4193 2.90352C38.8038 3.4391 39 4.28357 39 5.5H41C41 4.1491 40.7979 2.78721 40.044 1.73715C39.245 0.624215 37.9715 0.0517241 36.2717 0.00321013L36.2147 2.0024Z" fill="#102A47"/>
<path d="M17.1064 10.9386C17.6503 10.8429 18.0137 10.3243 17.9179 9.78042C17.8222 9.2365 17.3036 8.87317 16.7597 8.9689L17.1064 10.9386ZM12.0546 6.79664L13.05 6.70133L12.0546 6.79664ZM16.2432 1.0028L16.2717 0.00321013L16.2432 1.0028ZM16.7597 8.9689C16.2834 9.05274 15.338 8.98148 14.5007 8.58708C13.6999 8.20987 13.1375 7.61473 13.05 6.70133L11.0591 6.89196C11.2335 8.71315 12.4205 9.818 13.6485 10.3964C14.84 10.9576 16.2029 11.0976 17.1064 10.9386L16.7597 8.9689ZM13.05 6.70133C12.9098 5.23668 13.0623 4.01468 13.534 3.20721C13.949 2.49676 14.696 1.95905 16.2147 2.0024L16.2717 0.00321013C14.1438 -0.0575239 12.6486 0.757817 11.8071 2.19837C11.0222 3.54191 10.9037 5.26887 11.0591 6.89196L13.05 6.70133ZM16.2147 2.0024C17.4751 2.03837 18.08 2.43081 18.4193 2.90352C18.8038 3.4391 19 4.28357 19 5.5H21C21 4.1491 20.7979 2.78721 20.044 1.73715C19.245 0.624215 17.9715 0.0517241 16.2717 0.00321013L16.2147 2.0024Z" fill="#1C4C6A"/>
<path d="M8.171 19.142C8.171 18.868 8.24 18.653 8.378 18.497C8.518 18.341 8.698 18.263 8.918 18.263C9.138 18.263 9.317 18.339 9.455 18.491C9.593 18.641 9.662 18.856 9.662 19.136C9.662 19.41 9.591 19.629 9.449 19.793C9.307 19.957 9.13 20.039 8.918 20.039C8.702 20.039 8.523 19.96 8.381 19.802C8.241 19.642 8.171 19.422 8.171 19.142ZM8.447 19.133C8.447 19.341 8.492 19.503 8.582 19.619C8.672 19.735 8.784 19.793 8.918 19.793C9.048 19.793 9.159 19.736 9.251 19.622C9.343 19.506 9.389 19.348 9.389 19.148C9.389 18.94 9.344 18.782 9.254 18.674C9.164 18.564 9.052 18.509 8.918 18.509C8.786 18.509 8.674 18.563 8.582 18.671C8.492 18.779 8.447 18.933 8.447 19.133ZM10.8269 20H9.96591L9.93891 19.79H10.2629V18.641L10.0709 18.764L9.93591 18.566L10.3589 18.302H10.5509V19.79H10.7999L10.8269 20ZM12.9212 19.142C12.9212 18.868 12.9902 18.653 13.1282 18.497C13.2682 18.341 13.4482 18.263 13.6682 18.263C13.8882 18.263 14.0672 18.339 14.2052 18.491C14.3432 18.641 14.4122 18.856 14.4122 19.136C14.4122 19.41 14.3412 19.629 14.1992 19.793C14.0572 19.957 13.8802 20.039 13.6682 20.039C13.4522 20.039 13.2732 19.96 13.1312 19.802C12.9912 19.642 12.9212 19.422 12.9212 19.142ZM13.1972 19.133C13.1972 19.341 13.2422 19.503 13.3322 19.619C13.4222 19.735 13.5342 19.793 13.6682 19.793C13.7982 19.793 13.9092 19.736 14.0012 19.622C14.0932 19.506 14.1392 19.348 14.1392 19.148C14.1392 18.94 14.0942 18.782 14.0042 18.674C13.9142 18.564 13.8022 18.509 13.6682 18.509C13.5362 18.509 13.4242 18.563 13.3322 18.671C13.2422 18.779 13.1972 18.933 13.1972 19.133ZM15.1811 18.263C15.4031 18.263 15.5581 18.319 15.6461 18.431C15.7361 18.543 15.7811 18.661 15.7811 18.785C15.7811 18.901 15.7441 19.008 15.6701 19.106C15.5981 19.204 15.4901 19.315 15.3461 19.439L14.9591 19.778H15.8111L15.8501 20H14.5901V19.796L15.1901 19.256C15.3101 19.148 15.3921 19.061 15.4361 18.995C15.4821 18.929 15.5061 18.859 15.5081 18.785C15.5081 18.703 15.4791 18.635 15.4211 18.581C15.3651 18.525 15.2831 18.497 15.1751 18.497C15.0891 18.497 15.0011 18.522 14.9111 18.572C14.8231 18.622 14.7781 18.648 14.7761 18.65L14.6501 18.449C14.6781 18.427 14.7391 18.391 14.8331 18.341C14.9271 18.289 15.0431 18.263 15.1811 18.263ZM17.3102 19.142C17.3102 18.868 17.3792 18.653 17.5172 18.497C17.6572 18.341 17.8372 18.263 18.0572 18.263C18.2772 18.263 18.4562 18.339 18.5942 18.491C18.7322 18.641 18.8012 18.856 18.8012 19.136C18.8012 19.41 18.7302 19.629 18.5882 19.793C18.4462 19.957 18.2692 20.039 18.0572 20.039C17.8412 20.039 17.6622 19.96 17.5202 19.802C17.3802 19.642 17.3102 19.422 17.3102 19.142ZM17.5862 19.133C17.5862 19.341 17.6312 19.503 17.7212 19.619C17.8112 19.735 17.9232 19.793 18.0572 19.793C18.1872 19.793 18.2982 19.736 18.3902 19.622C18.4822 19.506 18.5282 19.348 18.5282 19.148C18.5282 18.94 18.4832 18.782 18.3932 18.674C18.3032 18.564 18.1912 18.509 18.0572 18.509C17.9252 18.509 17.8132 18.563 17.7212 18.671C17.6312 18.779 17.5862 18.933 17.5862 19.133ZM19.6181 18.263C19.8241 18.263 19.9781 18.314 20.0801 18.416C20.1821 18.518 20.2331 18.635 20.2331 18.767C20.2331 18.867 20.2031 18.956 20.1431 19.034C20.0831 19.11 20.0151 19.162 19.9391 19.19C20.0251 19.21 20.1011 19.263 20.1671 19.349C20.2351 19.433 20.2691 19.537 20.2691 19.661C20.2691 19.821 20.2061 19.955 20.0801 20.063C19.9561 20.173 19.7881 20.228 19.5761 20.228C19.4641 20.228 19.3541 20.21 19.2461 20.174C19.1381 20.138 19.0441 20.099 18.9641 20.057L19.1111 19.859C19.1851 19.903 19.2571 19.937 19.3271 19.961C19.3991 19.983 19.4841 19.994 19.5821 19.994C19.6861 19.994 19.7801 19.965 19.8641 19.907C19.9501 19.849 19.9931 19.768 19.9931 19.664C19.9931 19.556 19.9521 19.469 19.8701 19.403C19.7881 19.337 19.6551 19.304 19.4711 19.304H19.3811L19.3391 19.085H19.4891C19.6331 19.085 19.7471 19.057 19.8311 19.001C19.9151 18.943 19.9571 18.867 19.9571 18.773C19.9571 18.699 19.9261 18.635 19.8641 18.581C19.8021 18.525 19.7171 18.497 19.6091 18.497C19.5111 18.497 19.4221 18.514 19.3421 18.548C19.2621 18.582 19.1971 18.616 19.1471 18.65L19.0091 18.458C19.0951 18.402 19.1881 18.356 19.2881 18.32C19.3881 18.282 19.4981 18.263 19.6181 18.263ZM21.7754 19.142C21.7754 18.868 21.8444 18.653 21.9824 18.497C22.1224 18.341 22.3024 18.263 22.5224 18.263C22.7424 18.263 22.9214 18.339 23.0594 18.491C23.1974 18.641 23.2664 18.856 23.2664 19.136C23.2664 19.41 23.1954 19.629 23.0534 19.793C22.9114 19.957 22.7344 20.039 22.5224 20.039C22.3064 20.039 22.1274 19.96 21.9854 19.802C21.8454 19.642 21.7754 19.422 21.7754 19.142ZM22.0514 19.133C22.0514 19.341 22.0964 19.503 22.1864 19.619C22.2764 19.735 22.3884 19.793 22.5224 19.793C22.6524 19.793 22.7634 19.736 22.8554 19.622C22.9474 19.506 22.9934 19.348 22.9934 19.148C22.9934 18.94 22.9484 18.782 22.8584 18.674C22.7684 18.564 22.6564 18.509 22.5224 18.509C22.3904 18.509 22.2784 18.563 22.1864 18.671C22.0964 18.779 22.0514 18.933 22.0514 19.133ZM24.9293 19.802H24.6473V20.207H24.3593V19.802H23.4833L23.4443 19.565L24.4403 18.287H24.6473V19.565H24.9623L24.9293 19.802ZM23.7533 19.565H24.3593V18.773L23.7533 19.565ZM26.9944 19.142C26.9944 18.868 27.0634 18.653 27.2014 18.497C27.3414 18.341 27.5214 18.263 27.7414 18.263C27.9614 18.263 28.1404 18.339 28.2784 18.491C28.4164 18.641 28.4854 18.856 28.4854 19.136C28.4854 19.41 28.4144 19.629 28.2724 19.793C28.1304 19.957 27.9534 20.039 27.7414 20.039C27.5254 20.039 27.3464 19.96 27.2044 19.802C27.0644 19.642 26.9944 19.422 26.9944 19.142ZM27.2704 19.133C27.2704 19.341 27.3154 19.503 27.4054 19.619C27.4954 19.735 27.6074 19.793 27.7414 19.793C27.8714 19.793 27.9824 19.736 28.0744 19.622C28.1664 19.506 28.2124 19.348 28.2124 19.148C28.2124 18.94 28.1674 18.782 28.0774 18.674C27.9874 18.564 27.8754 18.509 27.7414 18.509C27.6094 18.509 27.4974 18.563 27.4054 18.671C27.3154 18.779 27.2704 18.933 27.2704 19.133ZM28.8253 19.346L28.8733 18.302H29.9233L29.8903 18.539H29.1283L29.1043 19.049C29.1483 19.023 29.1943 19.004 29.2423 18.992C29.2903 18.978 29.3383 18.971 29.3863 18.971C29.6083 18.971 29.7713 19.032 29.8753 19.154C29.9793 19.276 30.0323 19.42 30.0343 19.586C30.0343 19.766 29.9713 19.918 29.8453 20.042C29.7213 20.166 29.5453 20.228 29.3173 20.228C29.2073 20.228 29.0983 20.21 28.9903 20.174C28.8843 20.14 28.7913 20.101 28.7113 20.057L28.8553 19.856C28.9293 19.9 29.0013 19.933 29.0713 19.955C29.1433 19.977 29.2293 19.988 29.3293 19.988C29.4553 19.988 29.5583 19.952 29.6383 19.88C29.7183 19.808 29.7583 19.71 29.7583 19.586C29.7583 19.464 29.7243 19.37 29.6563 19.304C29.5903 19.236 29.5053 19.202 29.4013 19.202C29.3253 19.202 29.2603 19.219 29.2063 19.253C29.1523 19.287 29.1143 19.318 29.0923 19.346H28.8253ZM31.5094 19.142C31.5094 18.868 31.5784 18.653 31.7164 18.497C31.8564 18.341 32.0364 18.263 32.2564 18.263C32.4764 18.263 32.6554 18.339 32.7934 18.491C32.9314 18.641 33.0004 18.856 33.0004 19.136C33.0004 19.41 32.9294 19.629 32.7874 19.793C32.6454 19.957 32.4684 20.039 32.2564 20.039C32.0404 20.039 31.8614 19.96 31.7194 19.802C31.5794 19.642 31.5094 19.422 31.5094 19.142ZM31.7854 19.133C31.7854 19.341 31.8304 19.503 31.9204 19.619C32.0104 19.735 32.1224 19.793 32.2564 19.793C32.3864 19.793 32.4974 19.736 32.5894 19.622C32.6814 19.506 32.7274 19.348 32.7274 19.148C32.7274 18.94 32.6824 18.782 32.5924 18.674C32.5024 18.564 32.3904 18.509 32.2564 18.509C32.1244 18.509 32.0124 18.563 31.9204 18.671C31.8304 18.779 31.7854 18.933 31.7854 19.133ZM34.6063 19.412C34.6063 19.574 34.5493 19.719 34.4353 19.847C34.3233 19.975 34.1743 20.039 33.9883 20.039C33.7763 20.039 33.6013 19.97 33.4633 19.832C33.3253 19.692 33.2563 19.487 33.2563 19.217C33.2563 18.997 33.3373 18.769 33.4993 18.533C33.6613 18.295 33.8733 18.15 34.1353 18.098L34.2583 18.281C34.0903 18.319 33.9443 18.404 33.8203 18.536C33.6963 18.668 33.6123 18.812 33.5683 18.968C33.6223 18.926 33.6853 18.89 33.7573 18.86C33.8313 18.828 33.9063 18.812 33.9823 18.812C34.1723 18.812 34.3233 18.873 34.4353 18.995C34.5493 19.115 34.6063 19.254 34.6063 19.412ZM34.3393 19.427C34.3393 19.325 34.3063 19.233 34.2403 19.151C34.1763 19.067 34.0873 19.025 33.9733 19.025C33.8693 19.025 33.7783 19.053 33.7003 19.109C33.6223 19.163 33.5663 19.224 33.5323 19.292C33.5403 19.444 33.5803 19.567 33.6523 19.661C33.7263 19.753 33.8343 19.799 33.9763 19.799C34.0863 19.799 34.1743 19.762 34.2403 19.688C34.3063 19.612 34.3393 19.525 34.3393 19.427ZM36.0507 19.142C36.0507 18.868 36.1197 18.653 36.2577 18.497C36.3977 18.341 36.5777 18.263 36.7977 18.263C37.0177 18.263 37.1967 18.339 37.3347 18.491C37.4727 18.641 37.5417 18.856 37.5417 19.136C37.5417 19.41 37.4707 19.629 37.3287 19.793C37.1867 19.957 37.0097 20.039 36.7977 20.039C36.5817 20.039 36.4027 19.96 36.2607 19.802C36.1207 19.642 36.0507 19.422 36.0507 19.142ZM36.3267 19.133C36.3267 19.341 36.3717 19.503 36.4617 19.619C36.5517 19.735 36.6637 19.793 36.7977 19.793C36.9277 19.793 37.0387 19.736 37.1307 19.622C37.2227 19.506 37.2687 19.348 37.2687 19.148C37.2687 18.94 37.2237 18.782 37.1337 18.674C37.0437 18.564 36.9317 18.509 36.7977 18.509C36.6657 18.509 36.5537 18.563 36.4617 18.671C36.3717 18.779 36.3267 18.933 36.3267 19.133ZM38.4106 20.126L39.2926 18.539H38.4226L38.3866 18.302H39.5596L39.6496 18.425L38.6806 20.207L38.4106 20.126ZM41.047 19.142C41.047 18.868 41.116 18.653 41.254 18.497C41.394 18.341 41.574 18.263 41.794 18.263C42.014 18.263 42.193 18.339 42.331 18.491C42.469 18.641 42.538 18.856 42.538 19.136C42.538 19.41 42.467 19.629 42.325 19.793C42.183 19.957 42.006 20.039 41.794 20.039C41.578 20.039 41.399 19.96 41.257 19.802C41.117 19.642 41.047 19.422 41.047 19.142ZM41.323 19.133C41.323 19.341 41.368 19.503 41.458 19.619C41.548 19.735 41.66 19.793 41.794 19.793C41.924 19.793 42.035 19.736 42.127 19.622C42.219 19.506 42.265 19.348 42.265 19.148C42.265 18.94 42.22 18.782 42.13 18.674C42.04 18.564 41.928 18.509 41.794 18.509C41.662 18.509 41.55 18.563 41.458 18.671C41.368 18.779 41.323 18.933 41.323 19.133ZM44.1439 19.469C44.1439 19.623 44.0849 19.757 43.9669 19.871C43.8489 19.983 43.6809 20.039 43.4629 20.039C43.2429 20.039 43.0739 19.983 42.9559 19.871C42.8379 19.759 42.7789 19.625 42.7789 19.469C42.7789 19.365 42.8159 19.265 42.8899 19.169C42.9659 19.071 43.0529 19.009 43.1509 18.983C43.0669 18.947 42.9969 18.894 42.9409 18.824C42.8869 18.752 42.8599 18.67 42.8599 18.578C42.8599 18.444 42.9119 18.326 43.0159 18.224C43.1219 18.122 43.2709 18.071 43.4629 18.071C43.6549 18.071 43.8029 18.122 43.9069 18.224C44.0129 18.326 44.0659 18.444 44.0659 18.578C44.0659 18.67 44.0359 18.752 43.9759 18.824C43.9179 18.894 43.8499 18.947 43.7719 18.983C43.8679 19.009 43.9539 19.068 44.0299 19.16C44.1059 19.252 44.1439 19.355 44.1439 19.469ZM43.1269 18.581C43.1269 18.655 43.1559 18.72 43.2139 18.776C43.2719 18.832 43.3549 18.868 43.4629 18.884C43.5709 18.868 43.6529 18.832 43.7089 18.776C43.7669 18.72 43.7959 18.655 43.7959 18.581C43.7959 18.507 43.7659 18.443 43.7059 18.389C43.6479 18.333 43.5649 18.305 43.4569 18.305C43.3529 18.305 43.2719 18.333 43.2139 18.389C43.1559 18.445 43.1269 18.509 43.1269 18.581ZM43.0489 19.475C43.0489 19.577 43.0899 19.658 43.1719 19.718C43.2539 19.776 43.3509 19.805 43.4629 19.805C43.5709 19.805 43.6659 19.776 43.7479 19.718C43.8319 19.658 43.8739 19.577 43.8739 19.475C43.8739 19.383 43.8389 19.302 43.7689 19.232C43.7009 19.16 43.5989 19.114 43.4629 19.094C43.3249 19.114 43.2209 19.16 43.1509 19.232C43.0829 19.302 43.0489 19.383 43.0489 19.475ZM8.171 24.142C8.171 23.868 8.24 23.653 8.378 23.497C8.518 23.341 8.698 23.263 8.918 23.263C9.138 23.263 9.317 23.339 9.455 23.491C9.593 23.641 9.662 23.856 9.662 24.136C9.662 24.41 9.591 24.629 9.449 24.793C9.307 24.957 9.13 25.039 8.918 25.039C8.702 25.039 8.523 24.96 8.381 24.802C8.241 24.642 8.171 24.422 8.171 24.142ZM8.447 24.133C8.447 24.341 8.492 24.503 8.582 24.619C8.672 24.735 8.784 24.793 8.918 24.793C9.048 24.793 9.159 24.736 9.251 24.622C9.343 24.506 9.389 24.348 9.389 24.148C9.389 23.94 9.344 23.782 9.254 23.674C9.164 23.564 9.052 23.509 8.918 23.509C8.786 23.509 8.674 23.563 8.582 23.671C8.492 23.779 8.447 23.933 8.447 24.133ZM9.86991 23.893C9.86991 23.731 9.92791 23.586 10.0439 23.458C10.1599 23.328 10.3109 23.263 10.4969 23.263C10.7089 23.263 10.8819 23.333 11.0159 23.473C11.1519 23.611 11.2199 23.816 11.2199 24.088C11.2199 24.308 11.1389 24.536 10.9769 24.772C10.8149 25.008 10.6039 25.153 10.3439 25.207L10.2179 25.021C10.3859 24.983 10.5309 24.899 10.6529 24.769C10.7769 24.637 10.8609 24.493 10.9049 24.337C10.8529 24.379 10.7909 24.416 10.7189 24.448C10.6489 24.478 10.5769 24.493 10.5029 24.493C10.3109 24.493 10.1569 24.433 10.0409 24.313C9.92691 24.191 9.86991 24.051 9.86991 23.893ZM10.1399 23.875C10.1399 23.977 10.1719 24.07 10.2359 24.154C10.2999 24.236 10.3889 24.277 10.5029 24.277C10.6089 24.277 10.7009 24.25 10.7789 24.196C10.8569 24.14 10.9129 24.079 10.9469 24.013C10.9349 23.861 10.8929 23.738 10.8209 23.644C10.7489 23.55 10.6429 23.503 10.5029 23.503C10.3909 23.503 10.3019 23.541 10.2359 23.617C10.1719 23.693 10.1399 23.779 10.1399 23.875ZM13.6214 25H12.7604L12.7334 24.79H13.0574V23.641L12.8654 23.764L12.7304 23.566L13.1534 23.302H13.3454V24.79H13.5944L13.6214 25ZM13.8587 24.142C13.8587 23.868 13.9277 23.653 14.0657 23.497C14.2057 23.341 14.3857 23.263 14.6057 23.263C14.8257 23.263 15.0047 23.339 15.1427 23.491C15.2807 23.641 15.3497 23.856 15.3497 24.136C15.3497 24.41 15.2787 24.629 15.1367 24.793C14.9947 24.957 14.8177 25.039 14.6057 25.039C14.3897 25.039 14.2107 24.96 14.0687 24.802C13.9287 24.642 13.8587 24.422 13.8587 24.142ZM14.1347 24.133C14.1347 24.341 14.1797 24.503 14.2697 24.619C14.3597 24.735 14.4717 24.793 14.6057 24.793C14.7357 24.793 14.8467 24.736 14.9387 24.622C15.0307 24.506 15.0767 24.348 15.0767 24.148C15.0767 23.94 15.0317 23.782 14.9417 23.674C14.8517 23.564 14.7397 23.509 14.6057 23.509C14.4737 23.509 14.3617 23.563 14.2697 23.671C14.1797 23.779 14.1347 23.933 14.1347 24.133ZM17.7526 25H16.8916L16.8646 24.79H17.1886V23.641L16.9966 23.764L16.8616 23.566L17.2846 23.302H17.4766V24.79H17.7256L17.7526 25ZM18.8989 25H18.0379L18.0109 24.79H18.3349V23.641L18.1429 23.764L18.0079 23.566L18.4309 23.302H18.6229V24.79H18.8719L18.8989 25ZM21.2832 25H20.4222L20.3952 24.79H20.7192V23.641L20.5272 23.764L20.3922 23.566L20.8152 23.302H21.0072V24.79H21.2562L21.2832 25ZM22.0335 23.263C22.2555 23.263 22.4105 23.319 22.4985 23.431C22.5885 23.543 22.6335 23.661 22.6335 23.785C22.6335 23.901 22.5965 24.008 22.5225 24.106C22.4505 24.204 22.3425 24.315 22.1985 24.439L21.8115 24.778H22.6635L22.7025 25H21.4425V24.796L22.0425 24.256C22.1625 24.148 22.2445 24.061 22.2885 23.995C22.3345 23.929 22.3585 23.859 22.3605 23.785C22.3605 23.703 22.3315 23.635 22.2735 23.581C22.2175 23.525 22.1355 23.497 22.0275 23.497C21.9415 23.497 21.8535 23.522 21.7635 23.572C21.6755 23.622 21.6305 23.648 21.6285 23.65L21.5025 23.449C21.5305 23.427 21.5915 23.391 21.6855 23.341C21.7795 23.289 21.8955 23.263 22.0335 23.263ZM25.0716 25H24.2106L24.1836 24.79H24.5076V23.641L24.3156 23.764L24.1806 23.566L24.6036 23.302H24.7956V24.79H25.0446L25.0716 25ZM25.87 23.263C26.076 23.263 26.23 23.314 26.332 23.416C26.434 23.518 26.485 23.635 26.485 23.767C26.485 23.867 26.455 23.956 26.395 24.034C26.335 24.11 26.267 24.162 26.191 24.19C26.277 24.21 26.353 24.263 26.419 24.349C26.487 24.433 26.521 24.537 26.521 24.661C26.521 24.821 26.458 24.955 26.332 25.063C26.208 25.173 26.04 25.228 25.828 25.228C25.716 25.228 25.606 25.21 25.498 25.174C25.39 25.138 25.296 25.099 25.216 25.057L25.363 24.859C25.437 24.903 25.509 24.937 25.579 24.961C25.651 24.983 25.736 24.994 25.834 24.994C25.938 24.994 26.032 24.965 26.116 24.907C26.202 24.849 26.245 24.768 26.245 24.664C26.245 24.556 26.204 24.469 26.122 24.403C26.04 24.337 25.907 24.304 25.723 24.304H25.633L25.591 24.085H25.741C25.885 24.085 25.999 24.057 26.083 24.001C26.167 23.943 26.209 23.867 26.209 23.773C26.209 23.699 26.178 23.635 26.116 23.581C26.054 23.525 25.969 23.497 25.861 23.497C25.763 23.497 25.674 23.514 25.594 23.548C25.514 23.582 25.449 23.616 25.399 23.65L25.261 23.458C25.347 23.402 25.44 23.356 25.54 23.32C25.64 23.282 25.75 23.263 25.87 23.263ZM28.9363 25H28.0753L28.0483 24.79H28.3723V23.641L28.1803 23.764L28.0453 23.566L28.4683 23.302H28.6603V24.79H28.9093L28.9363 25ZM30.5806 24.802H30.2986V25.207H30.0106V24.802H29.1346L29.0956 24.565L30.0916 23.287H30.2986V24.565H30.6136L30.5806 24.802ZM29.4046 24.565H30.0106V23.773L29.4046 24.565ZM32.9356 25H32.0746L32.0476 24.79H32.3716V23.641L32.1796 23.764L32.0446 23.566L32.4676 23.302H32.6596V24.79H32.9086L32.9356 25ZM33.257 24.346L33.305 23.302H34.355L34.322 23.539H33.56L33.536 24.049C33.58 24.023 33.626 24.004 33.674 23.992C33.722 23.978 33.77 23.971 33.818 23.971C34.04 23.971 34.203 24.032 34.307 24.154C34.411 24.276 34.464 24.42 34.466 24.586C34.466 24.766 34.403 24.918 34.277 25.042C34.153 25.166 33.977 25.228 33.749 25.228C33.639 25.228 33.53 25.21 33.422 25.174C33.316 25.14 33.223 25.101 33.143 25.057L33.287 24.856C33.361 24.9 33.433 24.933 33.503 24.955C33.575 24.977 33.661 24.988 33.761 24.988C33.887 24.988 33.99 24.952 34.07 24.88C34.15 24.808 34.19 24.71 34.19 24.586C34.19 24.464 34.156 24.37 34.088 24.304C34.022 24.236 33.937 24.202 33.833 24.202C33.757 24.202 33.692 24.219 33.638 24.253C33.584 24.287 33.546 24.318 33.524 24.346H33.257ZM36.85 25H35.989L35.962 24.79H36.286V23.641L36.094 23.764L35.959 23.566L36.382 23.302H36.574V24.79H36.823L36.85 25ZM38.4374 24.412C38.4374 24.574 38.3804 24.719 38.2664 24.847C38.1544 24.975 38.0054 25.039 37.8194 25.039C37.6074 25.039 37.4324 24.97 37.2944 24.832C37.1564 24.692 37.0874 24.487 37.0874 24.217C37.0874 23.997 37.1684 23.769 37.3304 23.533C37.4924 23.295 37.7044 23.15 37.9664 23.098L38.0894 23.281C37.9214 23.319 37.7754 23.404 37.6514 23.536C37.5274 23.668 37.4434 23.812 37.3994 23.968C37.4534 23.926 37.5164 23.89 37.5884 23.86C37.6624 23.828 37.7374 23.812 37.8134 23.812C38.0034 23.812 38.1544 23.873 38.2664 23.995C38.3804 24.115 38.4374 24.254 38.4374 24.412ZM38.1704 24.427C38.1704 24.325 38.1374 24.233 38.0714 24.151C38.0074 24.067 37.9184 24.025 37.8044 24.025C37.7004 24.025 37.6094 24.053 37.5314 24.109C37.4534 24.163 37.3974 24.224 37.3634 24.292C37.3714 24.444 37.4114 24.567 37.4834 24.661C37.5574 24.753 37.6654 24.799 37.8074 24.799C37.9174 24.799 38.0054 24.762 38.0714 24.688C38.1374 24.612 38.1704 24.525 38.1704 24.427ZM40.7908 25H39.9298L39.9028 24.79H40.2268V23.641L40.0348 23.764L39.8998 23.566L40.3228 23.302H40.5148V24.79H40.7638L40.7908 25ZM41.0221 25.126L41.9041 23.539H41.0341L40.9981 23.302H42.1711L42.2611 23.425L41.2921 25.207L41.0221 25.126ZM9.08 30H8.219L8.192 29.79H8.516V28.641L8.324 28.764L8.189 28.566L8.612 28.302H8.804V29.79H9.053L9.08 30ZM10.6673 29.469C10.6673 29.623 10.6083 29.757 10.4903 29.871C10.3723 29.983 10.2043 30.039 9.98633 30.039C9.76633 30.039 9.59733 29.983 9.47933 29.871C9.36133 29.759 9.30233 29.625 9.30233 29.469C9.30233 29.365 9.33933 29.265 9.41333 29.169C9.48933 29.071 9.57633 29.009 9.67433 28.983C9.59033 28.947 9.52033 28.894 9.46433 28.824C9.41033 28.752 9.38333 28.67 9.38333 28.578C9.38333 28.444 9.43533 28.326 9.53933 28.224C9.64533 28.122 9.79433 28.071 9.98633 28.071C10.1783 28.071 10.3263 28.122 10.4303 28.224C10.5363 28.326 10.5893 28.444 10.5893 28.578C10.5893 28.67 10.5593 28.752 10.4993 28.824C10.4413 28.894 10.3733 28.947 10.2953 28.983C10.3913 29.009 10.4773 29.068 10.5533 29.16C10.6293 29.252 10.6673 29.355 10.6673 29.469ZM9.65033 28.581C9.65033 28.655 9.67933 28.72 9.73733 28.776C9.79533 28.832 9.87833 28.868 9.98633 28.884C10.0943 28.868 10.1763 28.832 10.2323 28.776C10.2903 28.72 10.3193 28.655 10.3193 28.581C10.3193 28.507 10.2893 28.443 10.2293 28.389C10.1713 28.333 10.0883 28.305 9.98033 28.305C9.87633 28.305 9.79533 28.333 9.73733 28.389C9.67933 28.445 9.65033 28.509 9.65033 28.581ZM9.57233 29.475C9.57233 29.577 9.61333 29.658 9.69533 29.718C9.77733 29.776 9.87433 29.805 9.98633 29.805C10.0943 29.805 10.1893 29.776 10.2713 29.718C10.3553 29.658 10.3973 29.577 10.3973 29.475C10.3973 29.383 10.3623 29.302 10.2923 29.232C10.2243 29.16 10.1223 29.114 9.98633 29.094C9.84833 29.114 9.74433 29.16 9.67433 29.232C9.60633 29.302 9.57233 29.383 9.57233 29.475ZM13.053 30H12.192L12.165 29.79H12.489V28.641L12.297 28.764L12.162 28.566L12.585 28.302H12.777V29.79H13.026L13.053 30ZM13.2423 28.893C13.2423 28.731 13.3003 28.586 13.4163 28.458C13.5323 28.328 13.6833 28.263 13.8693 28.263C14.0813 28.263 14.2543 28.333 14.3883 28.473C14.5243 28.611 14.5923 28.816 14.5923 29.088C14.5923 29.308 14.5113 29.536 14.3493 29.772C14.1873 30.008 13.9763 30.153 13.7163 30.207L13.5903 30.021C13.7583 29.983 13.9033 29.899 14.0253 29.769C14.1493 29.637 14.2333 29.493 14.2773 29.337C14.2253 29.379 14.1633 29.416 14.0913 29.448C14.0213 29.478 13.9493 29.493 13.8753 29.493C13.6833 29.493 13.5293 29.433 13.4133 29.313C13.2993 29.191 13.2423 29.051 13.2423 28.893ZM13.5123 28.875C13.5123 28.977 13.5443 29.07 13.6083 29.154C13.6723 29.236 13.7613 29.277 13.8753 29.277C13.9813 29.277 14.0733 29.25 14.1513 29.196C14.2293 29.14 14.2853 29.079 14.3193 29.013C14.3073 28.861 14.2653 28.738 14.1933 28.644C14.1213 28.55 14.0153 28.503 13.8753 28.503C13.7633 28.503 13.6743 28.541 13.6083 28.617C13.5443 28.693 13.5123 28.779 13.5123 28.875ZM16.5978 28.263C16.8198 28.263 16.9748 28.319 17.0628 28.431C17.1528 28.543 17.1978 28.661 17.1978 28.785C17.1978 28.901 17.1608 29.008 17.0868 29.106C17.0148 29.204 16.9068 29.315 16.7628 29.439L16.3758 29.778H17.2278L17.2668 30H16.0068V29.796L16.6068 29.256C16.7268 29.148 16.8088 29.061 16.8528 28.995C16.8988 28.929 16.9228 28.859 16.9248 28.785C16.9248 28.703 16.8958 28.635 16.8378 28.581C16.7818 28.525 16.6998 28.497 16.5918 28.497C16.5058 28.497 16.4178 28.522 16.3278 28.572C16.2398 28.622 16.1948 28.648 16.1928 28.65L16.0668 28.449C16.0948 28.427 16.1558 28.391 16.2498 28.341C16.3438 28.289 16.4598 28.263 16.5978 28.263ZM17.4889 29.142C17.4889 28.868 17.5579 28.653 17.6959 28.497C17.8359 28.341 18.0159 28.263 18.2359 28.263C18.4559 28.263 18.6349 28.339 18.7729 28.491C18.9109 28.641 18.9799 28.856 18.9799 29.136C18.9799 29.41 18.9089 29.629 18.7669 29.793C18.6249 29.957 18.4479 30.039 18.2359 30.039C18.0199 30.039 17.8409 29.96 17.6989 29.802C17.5589 29.642 17.4889 29.422 17.4889 29.142ZM17.7649 29.133C17.7649 29.341 17.8099 29.503 17.8999 29.619C17.9899 29.735 18.1019 29.793 18.2359 29.793C18.3659 29.793 18.4769 29.736 18.5689 29.622C18.6609 29.506 18.7069 29.348 18.7069 29.148C18.7069 28.94 18.6619 28.782 18.5719 28.674C18.4819 28.564 18.3699 28.509 18.2359 28.509C18.1039 28.509 17.9919 28.563 17.8999 28.671C17.8099 28.779 17.7649 28.933 17.7649 29.133ZM20.9868 28.263C21.2088 28.263 21.3638 28.319 21.4518 28.431C21.5418 28.543 21.5868 28.661 21.5868 28.785C21.5868 28.901 21.5498 29.008 21.4758 29.106C21.4038 29.204 21.2958 29.315 21.1518 29.439L20.7648 29.778H21.6168L21.6558 30H20.3958V29.796L20.9958 29.256C21.1158 29.148 21.1978 29.061 21.2418 28.995C21.2878 28.929 21.3118 28.859 21.3138 28.785C21.3138 28.703 21.2848 28.635 21.2268 28.581C21.1708 28.525 21.0888 28.497 20.9808 28.497C20.8948 28.497 20.8068 28.522 20.7168 28.572C20.6288 28.622 20.5838 28.648 20.5818 28.65L20.4558 28.449C20.4838 28.427 20.5448 28.391 20.6388 28.341C20.7328 28.289 20.8488 28.263 20.9868 28.263ZM22.787 30H21.926L21.899 29.79H22.223V28.641L22.031 28.764L21.896 28.566L22.319 28.302H22.511V29.79H22.76L22.787 30ZM24.7752 28.263C24.9972 28.263 25.1522 28.319 25.2402 28.431C25.3302 28.543 25.3752 28.661 25.3752 28.785C25.3752 28.901 25.3382 29.008 25.2642 29.106C25.1922 29.204 25.0842 29.315 24.9402 29.439L24.5532 29.778H25.4052L25.4442 30H24.1842V29.796L24.7842 29.256C24.9042 29.148 24.9862 29.061 25.0302 28.995C25.0762 28.929 25.1002 28.859 25.1022 28.785C25.1022 28.703 25.0732 28.635 25.0152 28.581C24.9592 28.525 24.8772 28.497 24.7692 28.497C24.6832 28.497 24.5952 28.522 24.5052 28.572C24.4172 28.622 24.3722 28.648 24.3702 28.65L24.2442 28.449C24.2722 28.427 24.3332 28.391 24.4272 28.341C24.5212 28.289 24.6372 28.263 24.7752 28.263ZM26.1794 28.263C26.4014 28.263 26.5564 28.319 26.6444 28.431C26.7344 28.543 26.7794 28.661 26.7794 28.785C26.7794 28.901 26.7424 29.008 26.6684 29.106C26.5964 29.204 26.4884 29.315 26.3444 29.439L25.9574 29.778H26.8094L26.8484 30H25.5884V29.796L26.1884 29.256C26.3084 29.148 26.3904 29.061 26.4344 28.995C26.4804 28.929 26.5044 28.859 26.5064 28.785C26.5064 28.703 26.4774 28.635 26.4194 28.581C26.3634 28.525 26.2814 28.497 26.1734 28.497C26.0874 28.497 25.9994 28.522 25.9094 28.572C25.8214 28.622 25.7764 28.648 25.7744 28.65L25.6484 28.449C25.6764 28.427 25.7374 28.391 25.8314 28.341C25.9254 28.289 26.0414 28.263 26.1794 28.263ZM28.8215 28.263C29.0435 28.263 29.1985 28.319 29.2865 28.431C29.3765 28.543 29.4215 28.661 29.4215 28.785C29.4215 28.901 29.3845 29.008 29.3105 29.106C29.2385 29.204 29.1305 29.315 28.9865 29.439L28.5995 29.778H29.4515L29.4905 30H28.2305V29.796L28.8305 29.256C28.9505 29.148 29.0325 29.061 29.0765 28.995C29.1225 28.929 29.1465 28.859 29.1485 28.785C29.1485 28.703 29.1195 28.635 29.0615 28.581C29.0055 28.525 28.9235 28.497 28.8155 28.497C28.7295 28.497 28.6415 28.522 28.5515 28.572C28.4635 28.622 28.4185 28.648 28.4165 28.65L28.2905 28.449C28.3185 28.427 28.3795 28.391 28.4735 28.341C28.5675 28.289 28.6835 28.263 28.8215 28.263ZM30.2736 28.263C30.4796 28.263 30.6336 28.314 30.7356 28.416C30.8376 28.518 30.8886 28.635 30.8886 28.767C30.8886 28.867 30.8586 28.956 30.7986 29.034C30.7386 29.11 30.6706 29.162 30.5946 29.19C30.6806 29.21 30.7566 29.263 30.8226 29.349C30.8906 29.433 30.9246 29.537 30.9246 29.661C30.9246 29.821 30.8616 29.955 30.7356 30.063C30.6116 30.173 30.4436 30.228 30.2316 30.228C30.1196 30.228 30.0096 30.21 29.9016 30.174C29.7936 30.138 29.6996 30.099 29.6196 30.057L29.7666 29.859C29.8406 29.903 29.9126 29.937 29.9826 29.961C30.0546 29.983 30.1396 29.994 30.2376 29.994C30.3416 29.994 30.4356 29.965 30.5196 29.907C30.6056 29.849 30.6486 29.768 30.6486 29.664C30.6486 29.556 30.6076 29.469 30.5256 29.403C30.4436 29.337 30.3106 29.304 30.1266 29.304H30.0366L29.9946 29.085H30.1446C30.2886 29.085 30.4026 29.057 30.4866 29.001C30.5706 28.943 30.6126 28.867 30.6126 28.773C30.6126 28.699 30.5816 28.635 30.5196 28.581C30.4576 28.525 30.3726 28.497 30.2646 28.497C30.1666 28.497 30.0776 28.514 29.9976 28.548C29.9176 28.582 29.8526 28.616 29.8026 28.65L29.6646 28.458C29.7506 28.402 29.8436 28.356 29.9436 28.32C30.0436 28.282 30.1536 28.263 30.2736 28.263ZM32.9439 28.263C33.1659 28.263 33.3209 28.319 33.4089 28.431C33.4989 28.543 33.5439 28.661 33.5439 28.785C33.5439 28.901 33.5069 29.008 33.4329 29.106C33.3609 29.204 33.2529 29.315 33.1089 29.439L32.7219 29.778H33.5739L33.6129 30H32.3529V29.796L32.9529 29.256C33.0729 29.148 33.1549 29.061 33.1989 28.995C33.2449 28.929 33.2689 28.859 33.2709 28.785C33.2709 28.703 33.2419 28.635 33.1839 28.581C33.1279 28.525 33.0459 28.497 32.9379 28.497C32.8519 28.497 32.7639 28.522 32.6739 28.572C32.5859 28.622 32.5409 28.648 32.5389 28.65L32.4129 28.449C32.4409 28.427 32.5019 28.391 32.5959 28.341C32.6899 28.289 32.8059 28.263 32.9439 28.263ZM35.2421 29.802H34.9601V30.207H34.6721V29.802H33.7961L33.7571 29.565L34.7531 28.287H34.9601V29.565H35.2751L35.2421 29.802ZM34.0661 29.565H34.6721V28.773L34.0661 29.565ZM37.2011 28.263C37.4231 28.263 37.5781 28.319 37.6661 28.431C37.7561 28.543 37.8011 28.661 37.8011 28.785C37.8011 28.901 37.7641 29.008 37.6901 29.106C37.6181 29.204 37.5101 29.315 37.3661 29.439L36.9791 29.778H37.8311L37.8701 30H36.6101V29.796L37.2101 29.256C37.3301 29.148 37.4121 29.061 37.4561 28.995C37.5021 28.929 37.5261 28.859 37.5281 28.785C37.5281 28.703 37.4991 28.635 37.4411 28.581C37.3851 28.525 37.3031 28.497 37.1951 28.497C37.1091 28.497 37.0211 28.522 36.9311 28.572C36.8431 28.622 36.7981 28.648 36.7961 28.65L36.6701 28.449C36.6981 28.427 36.7591 28.391 36.8531 28.341C36.9471 28.289 37.0631 28.263 37.2011 28.263ZM38.1762 29.346L38.2242 28.302H39.2742L39.2412 28.539H38.4792L38.4552 29.049C38.4992 29.023 38.5452 29.004 38.5932 28.992C38.6412 28.978 38.6892 28.971 38.7372 28.971C38.9592 28.971 39.1222 29.032 39.2262 29.154C39.3302 29.276 39.3832 29.42 39.3852 29.586C39.3852 29.766 39.3222 29.918 39.1962 30.042C39.0722 30.166 38.8962 30.228 38.6682 30.228C38.5582 30.228 38.4492 30.21 38.3412 30.174C38.2352 30.14 38.1422 30.101 38.0622 30.057L38.2062 29.856C38.2802 29.9 38.3522 29.933 38.4222 29.955C38.4942 29.977 38.5802 29.988 38.6802 29.988C38.8062 29.988 38.9092 29.952 38.9892 29.88C39.0692 29.808 39.1092 29.71 39.1092 29.586C39.1092 29.464 39.0752 29.37 39.0072 29.304C38.9412 29.236 38.8562 29.202 38.7522 29.202C38.6762 29.202 38.6112 29.219 38.5572 29.253C38.5032 29.287 38.4652 29.318 38.4432 29.346H38.1762ZM41.3733 28.263C41.5953 28.263 41.7503 28.319 41.8383 28.431C41.9283 28.543 41.9733 28.661 41.9733 28.785C41.9733 28.901 41.9363 29.008 41.8623 29.106C41.7903 29.204 41.6823 29.315 41.5383 29.439L41.1513 29.778H42.0033L42.0423 30H40.7823V29.796L41.3823 29.256C41.5023 29.148 41.5843 29.061 41.6283 28.995C41.6743 28.929 41.6983 28.859 41.7003 28.785C41.7003 28.703 41.6713 28.635 41.6133 28.581C41.5573 28.525 41.4753 28.497 41.3673 28.497C41.2813 28.497 41.1933 28.522 41.1033 28.572C41.0153 28.622 40.9703 28.648 40.9683 28.65L40.8423 28.449C40.8703 28.427 40.9313 28.391 41.0253 28.341C41.1193 28.289 41.2353 28.263 41.3733 28.263ZM43.6145 29.412C43.6145 29.574 43.5575 29.719 43.4435 29.847C43.3315 29.975 43.1825 30.039 42.9965 30.039C42.7845 30.039 42.6095 29.97 42.4715 29.832C42.3335 29.692 42.2645 29.487 42.2645 29.217C42.2645 28.997 42.3455 28.769 42.5075 28.533C42.6695 28.295 42.8815 28.15 43.1435 28.098L43.2665 28.281C43.0985 28.319 42.9525 28.404 42.8285 28.536C42.7045 28.668 42.6205 28.812 42.5765 28.968C42.6305 28.926 42.6935 28.89 42.7655 28.86C42.8395 28.828 42.9145 28.812 42.9905 28.812C43.1805 28.812 43.3315 28.873 43.4435 28.995C43.5575 29.115 43.6145 29.254 43.6145 29.412ZM43.3475 29.427C43.3475 29.325 43.3145 29.233 43.2485 29.151C43.1845 29.067 43.0955 29.025 42.9815 29.025C42.8775 29.025 42.7865 29.053 42.7085 29.109C42.6305 29.163 42.5745 29.224 42.5405 29.292C42.5485 29.444 42.5885 29.567 42.6605 29.661C42.7345 29.753 42.8425 29.799 42.9845 29.799C43.0945 29.799 43.1825 29.762 43.2485 29.688C43.3145 29.612 43.3475 29.525 43.3475 29.427ZM8.684 33.263C8.906 33.263 9.061 33.319 9.149 33.431C9.239 33.543 9.284 33.661 9.284 33.785C9.284 33.901 9.247 34.008 9.173 34.106C9.101 34.204 8.993 34.315 8.849 34.439L8.462 34.778H9.314L9.353 35H8.093V34.796L8.693 34.256C8.813 34.148 8.895 34.061 8.939 33.995C8.985 33.929 9.009 33.859 9.011 33.785C9.011 33.703 8.982 33.635 8.924 33.581C8.868 33.525 8.786 33.497 8.678 33.497C8.592 33.497 8.504 33.522 8.414 33.572C8.326 33.622 8.281 33.648 8.279 33.65L8.153 33.449C8.181 33.427 8.242 33.391 8.336 33.341C8.43 33.289 8.546 33.263 8.684 33.263ZM9.56914 35.126L10.4511 33.539H9.58114L9.54514 33.302H10.7181L10.8081 33.425L9.83914 35.207L9.56914 35.126ZM12.7185 33.263C12.9405 33.263 13.0955 33.319 13.1835 33.431C13.2735 33.543 13.3185 33.661 13.3185 33.785C13.3185 33.901 13.2815 34.008 13.2075 34.106C13.1355 34.204 13.0275 34.315 12.8835 34.439L12.4965 34.778H13.3485L13.3875 35H12.1275V34.796L12.7275 34.256C12.8475 34.148 12.9295 34.061 12.9735 33.995C13.0195 33.929 13.0435 33.859 13.0455 33.785C13.0455 33.703 13.0165 33.635 12.9585 33.581C12.9025 33.525 12.8205 33.497 12.7125 33.497C12.6265 33.497 12.5385 33.522 12.4485 33.572C12.3605 33.622 12.3155 33.648 12.3135 33.65L12.1875 33.449C12.2155 33.427 12.2765 33.391 12.3705 33.341C12.4645 33.289 12.5805 33.263 12.7185 33.263ZM14.9597 34.469C14.9597 34.623 14.9007 34.757 14.7827 34.871C14.6647 34.983 14.4967 35.039 14.2787 35.039C14.0587 35.039 13.8897 34.983 13.7717 34.871C13.6537 34.759 13.5947 34.625 13.5947 34.469C13.5947 34.365 13.6317 34.265 13.7057 34.169C13.7817 34.071 13.8687 34.009 13.9667 33.983C13.8827 33.947 13.8127 33.894 13.7567 33.824C13.7027 33.752 13.6757 33.67 13.6757 33.578C13.6757 33.444 13.7277 33.326 13.8317 33.224C13.9377 33.122 14.0867 33.071 14.2787 33.071C14.4707 33.071 14.6187 33.122 14.7227 33.224C14.8287 33.326 14.8817 33.444 14.8817 33.578C14.8817 33.67 14.8517 33.752 14.7917 33.824C14.7337 33.894 14.6657 33.947 14.5877 33.983C14.6837 34.009 14.7697 34.068 14.8457 34.16C14.9217 34.252 14.9597 34.355 14.9597 34.469ZM13.9427 33.581C13.9427 33.655 13.9717 33.72 14.0297 33.776C14.0877 33.832 14.1707 33.868 14.2787 33.884C14.3867 33.868 14.4687 33.832 14.5247 33.776C14.5827 33.72 14.6117 33.655 14.6117 33.581C14.6117 33.507 14.5817 33.443 14.5217 33.389C14.4637 33.333 14.3807 33.305 14.2727 33.305C14.1687 33.305 14.0877 33.333 14.0297 33.389C13.9717 33.445 13.9427 33.509 13.9427 33.581ZM13.8647 34.475C13.8647 34.577 13.9057 34.658 13.9877 34.718C14.0697 34.776 14.1667 34.805 14.2787 34.805C14.3867 34.805 14.4817 34.776 14.5637 34.718C14.6477 34.658 14.6897 34.577 14.6897 34.475C14.6897 34.383 14.6547 34.302 14.5847 34.232C14.5167 34.16 14.4147 34.114 14.2787 34.094C14.1407 34.114 14.0367 34.16 13.9667 34.232C13.8987 34.302 13.8647 34.383 13.8647 34.475ZM16.9494 33.263C17.1714 33.263 17.3264 33.319 17.4144 33.431C17.5044 33.543 17.5494 33.661 17.5494 33.785C17.5494 33.901 17.5124 34.008 17.4384 34.106C17.3664 34.204 17.2584 34.315 17.1144 34.439L16.7274 34.778H17.5794L17.6184 35H16.3584V34.796L16.9584 34.256C17.0784 34.148 17.1604 34.061 17.2044 33.995C17.2504 33.929 17.2744 33.859 17.2764 33.785C17.2764 33.703 17.2474 33.635 17.1894 33.581C17.1334 33.525 17.0514 33.497 16.9434 33.497C16.8574 33.497 16.7694 33.522 16.6794 33.572C16.5914 33.622 16.5464 33.648 16.5444 33.65L16.4184 33.449C16.4464 33.427 16.5074 33.391 16.6014 33.341C16.6954 33.289 16.8114 33.263 16.9494 33.263ZM17.7925 33.893C17.7925 33.731 17.8505 33.586 17.9665 33.458C18.0825 33.328 18.2335 33.263 18.4195 33.263C18.6315 33.263 18.8045 33.333 18.9385 33.473C19.0745 33.611 19.1425 33.816 19.1425 34.088C19.1425 34.308 19.0615 34.536 18.8995 34.772C18.7375 35.008 18.5265 35.153 18.2665 35.207L18.1405 35.021C18.3085 34.983 18.4535 34.899 18.5755 34.769C18.6995 34.637 18.7835 34.493 18.8275 34.337C18.7755 34.379 18.7135 34.416 18.6415 34.448C18.5715 34.478 18.4995 34.493 18.4255 34.493C18.2335 34.493 18.0795 34.433 17.9635 34.313C17.8495 34.191 17.7925 34.051 17.7925 33.893ZM18.0625 33.875C18.0625 33.977 18.0945 34.07 18.1585 34.154C18.2225 34.236 18.3115 34.277 18.4255 34.277C18.5315 34.277 18.6235 34.25 18.7015 34.196C18.7795 34.14 18.8355 34.079 18.8695 34.013C18.8575 33.861 18.8155 33.738 18.7435 33.644C18.6715 33.55 18.5655 33.503 18.4255 33.503C18.3135 33.503 18.2245 33.541 18.1585 33.617C18.0945 33.693 18.0625 33.779 18.0625 33.875ZM21.1959 33.263C21.4019 33.263 21.5559 33.314 21.6579 33.416C21.7599 33.518 21.8109 33.635 21.8109 33.767C21.8109 33.867 21.7809 33.956 21.7209 34.034C21.6609 34.11 21.5929 34.162 21.5169 34.19C21.6029 34.21 21.6789 34.263 21.7449 34.349C21.8129 34.433 21.8469 34.537 21.8469 34.661C21.8469 34.821 21.7839 34.955 21.6579 35.063C21.5339 35.173 21.3659 35.228 21.1539 35.228C21.0419 35.228 20.9319 35.21 20.8239 35.174C20.7159 35.138 20.6219 35.099 20.5419 35.057L20.6889 34.859C20.7629 34.903 20.8349 34.937 20.9049 34.961C20.9769 34.983 21.0619 34.994 21.1599 34.994C21.2639 34.994 21.3579 34.965 21.4419 34.907C21.5279 34.849 21.5709 34.768 21.5709 34.664C21.5709 34.556 21.5299 34.469 21.4479 34.403C21.3659 34.337 21.2329 34.304 21.0489 34.304H20.9589L20.9169 34.085H21.0669C21.2109 34.085 21.3249 34.057 21.4089 34.001C21.4929 33.943 21.5349 33.867 21.5349 33.773C21.5349 33.699 21.5039 33.635 21.4419 33.581C21.3799 33.525 21.2949 33.497 21.1869 33.497C21.0889 33.497 20.9999 33.514 20.9199 33.548C20.8399 33.582 20.7749 33.616 20.7249 33.65L20.5869 33.458C20.6729 33.402 20.7659 33.356 20.8659 33.32C20.9659 33.282 21.0759 33.263 21.1959 33.263ZM22.1153 34.142C22.1153 33.868 22.1843 33.653 22.3223 33.497C22.4623 33.341 22.6423 33.263 22.8623 33.263C23.0823 33.263 23.2613 33.339 23.3993 33.491C23.5373 33.641 23.6063 33.856 23.6063 34.136C23.6063 34.41 23.5353 34.629 23.3933 34.793C23.2513 34.957 23.0743 35.039 22.8623 35.039C22.6463 35.039 22.4673 34.96 22.3253 34.802C22.1853 34.642 22.1153 34.422 22.1153 34.142ZM22.3913 34.133C22.3913 34.341 22.4363 34.503 22.5263 34.619C22.6163 34.735 22.7283 34.793 22.8623 34.793C22.9923 34.793 23.1033 34.736 23.1953 34.622C23.2873 34.506 23.3333 34.348 23.3333 34.148C23.3333 33.94 23.2883 33.782 23.1983 33.674C23.1083 33.564 22.9963 33.509 22.8623 33.509C22.7303 33.509 22.6183 33.563 22.5263 33.671C22.4363 33.779 22.3913 33.933 22.3913 34.133Z" fill="black"/>
</g>
<defs>
<filter id="filter0_d_169_1311" x="0" y="4.57764e-05" width="53" height="45.1182" filterUnits="userSpaceOnUse" color-interpolation-filters="sRGB">
<feFlood flood-opacity="0" result="BackgroundImageFix"/>
<feColorMatrix in="SourceAlpha" type="matrix" values="0 0 0 0 0 0 0 0 0 0 0 0 0 0 0 0 0 0 127 0" result="hardAlpha"/>
<feOffset dy="4"/>
<feGaussianBlur stdDeviation="2"/>
<feComposite in2="hardAlpha" operator="out"/>
<feColorMatrix type="matrix" values="0 0 0 0 0 0 0 0 0 0 0 0 0 0 0 0 0 0 0.25 0"/>
<feBlend mode="normal" in2="BackgroundImageFix" result="effect1_dropShadow_169_1311"/>
<feBlend mode="normal" in="SourceGraphic" in2="effect1_dropShadow_169_1311" result="shape"/>
</filter>
</defs>
</svg>
