<svg width="53" height="46" viewBox="0 0 53 46" fill="none" xmlns="http://www.w3.org/2000/svg">
<g filter="url(#filter0_d_169_1318)">
<path d="M4 10.3755C4 7.61408 6.23858 5.3755 9 5.3755H44C46.7614 5.3755 49 7.61408 49 10.3755V32.1182C49 34.8797 46.7614 37.1182 44 37.1182H9C6.23858 37.1182 4 34.8797 4 32.1182V10.3755Z" fill="#D9D9D9"/>
<path d="M4 10.3755C4 7.61408 6.23858 5.3755 9 5.3755H26.5V15.4585H4V10.3755Z" fill="#FF6D3A"/>
<path d="M26.5 5.3755H44C46.7614 5.3755 49 7.61408 49 10.3755V15.4585H26.5V5.3755Z" fill="#FF4E66"/>
<path d="M37.1064 10.9386C37.6503 10.8429 38.0137 10.3243 37.9179 9.78042C37.8222 9.2365 37.3036 8.87317 36.7597 8.9689L37.1064 10.9386ZM32.0546 6.79664L33.05 6.70133L32.0546 6.79664ZM36.2432 1.0028L36.2717 0.00321013L36.2432 1.0028ZM36.7597 8.9689C36.2834 9.05274 35.338 8.98148 34.5007 8.58708C33.6999 8.20987 33.1375 7.61473 33.05 6.70133L31.0591 6.89196C31.2335 8.71315 32.4205 9.818 33.6485 10.3964C34.84 10.9576 36.2029 11.0976 37.1064 10.9386L36.7597 8.9689ZM33.05 6.70133C32.9098 5.23668 33.0623 4.01468 33.534 3.20721C33.949 2.49676 34.696 1.95905 36.2147 2.0024L36.2717 0.00321013C34.1438 -0.0575239 32.6486 0.757817 31.8071 2.19837C31.0222 3.54191 30.9037 5.26887 31.0591 6.89196L33.05 6.70133ZM36.2147 2.0024C37.4751 2.03837 38.08 2.43081 38.4193 2.90352C38.8038 3.4391 39 4.28357 39 5.5H41C41 4.1491 40.7979 2.78721 40.044 1.73715C39.245 0.624215 37.9715 0.0517241 36.2717 0.00321013L36.2147 2.0024Z" fill="#102A47"/>
<path d="M17.1064 10.9386C17.6503 10.8429 18.0137 10.3243 17.9179 9.78042C17.8222 9.2365 17.3036 8.87317 16.7597 8.9689L17.1064 10.9386ZM12.0546 6.79664L13.05 6.70133L12.0546 6.79664ZM16.2432 1.0028L16.2717 0.00321013L16.2432 1.0028ZM16.7597 8.9689C16.2834 9.05274 15.338 8.98148 14.5007 8.58708C13.6999 8.20987 13.1375 7.61473 13.05 6.70133L11.0591 6.89196C11.2335 8.71315 12.4205 9.818 13.6485 10.3964C14.84 10.9576 16.2029 11.0976 17.1064 10.9386L16.7597 8.9689ZM13.05 6.70133C12.9098 5.23668 13.0623 4.01468 13.534 3.20721C13.949 2.49676 14.696 1.95905 16.2147 2.0024L16.2717 0.00321013C14.1438 -0.0575239 12.6486 0.757817 11.8071 2.19837C11.0222 3.54191 10.9037 5.26887 11.0591 6.89196L13.05 6.70133ZM16.2147 2.0024C17.4751 2.03837 18.08 2.43081 18.4193 2.90352C18.8038 3.4391 19 4.28357 19 5.5H21C21 4.1491 20.7979 2.78721 20.044 1.73715C19.245 0.624215 17.9715 0.0517241 16.2717 0.00321013L16.2147 2.0024Z" fill="#1C4C6A"/>
<path d="M9.243 21.661C9.299 21.689 9.374 21.718 9.468 21.748C9.562 21.776 9.655 21.79 9.747 21.79C9.893 21.79 10.004 21.763 10.08 21.709C10.156 21.655 10.194 21.584 10.194 21.496C10.194 21.294 10.018 21.145 9.666 21.049C9.316 20.951 9.141 20.748 9.141 20.44C9.141 20.292 9.2 20.167 9.318 20.065C9.438 19.963 9.602 19.912 9.81 19.912C9.912 19.912 10.01 19.926 10.104 19.954C10.2 19.982 10.282 20.013 10.35 20.047C10.336 20.085 10.32 20.123 10.302 20.161C10.284 20.199 10.268 20.237 10.254 20.275C10.202 20.249 10.142 20.225 10.074 20.203C10.008 20.179 9.927 20.167 9.831 20.167C9.717 20.167 9.621 20.189 9.543 20.233C9.467 20.277 9.429 20.344 9.429 20.434C9.429 20.64 9.605 20.793 9.957 20.893C10.309 20.993 10.485 21.192 10.485 21.49C10.485 21.65 10.421 21.782 10.293 21.886C10.167 21.988 9.986 22.039 9.75 22.039C9.664 22.039 9.557 22.023 9.429 21.991C9.301 21.959 9.217 21.925 9.177 21.889C9.187 21.851 9.197 21.813 9.207 21.775C9.219 21.737 9.231 21.699 9.243 21.661ZM11.082 21.244C11.082 21.416 11.128 21.551 11.22 21.649C11.312 21.747 11.433 21.796 11.583 21.796C11.739 21.796 11.861 21.746 11.949 21.646C12.037 21.546 12.081 21.412 12.081 21.244V19.96H12.372V21.271C12.372 21.489 12.301 21.671 12.159 21.817C12.019 21.961 11.827 22.033 11.583 22.033C11.339 22.033 11.146 21.961 11.004 21.817C10.864 21.673 10.794 21.491 10.794 21.271V19.96H11.082V21.244ZM12.8256 22V19.96H13.0806L13.9956 21.244L14.1396 21.469V19.96H14.4306V22H14.1726L13.2276 20.659L13.1136 20.479V22H12.8256Z" fill="black"/>
<path d="M19.134 21.346L18.57 20.557V22H18.282V19.96H18.459L19.176 20.968L19.857 19.96H20.037V22H19.746V20.584L19.239 21.331L19.134 21.346ZM20.4253 20.989C20.4253 20.683 20.5033 20.429 20.6593 20.227C20.8173 20.023 21.0443 19.918 21.3403 19.912C21.6563 19.912 21.8873 20.017 22.0333 20.227C22.1793 20.435 22.2523 20.682 22.2523 20.968C22.2523 21.266 22.1733 21.519 22.0153 21.727C21.8573 21.933 21.6293 22.038 21.3313 22.042C21.0173 22.042 20.7873 21.938 20.6413 21.73C20.4973 21.522 20.4253 21.275 20.4253 20.989ZM20.7253 20.986C20.7253 21.214 20.7733 21.406 20.8693 21.562C20.9673 21.718 21.1203 21.796 21.3283 21.796C21.5183 21.796 21.6683 21.723 21.7783 21.577C21.8903 21.431 21.9463 21.228 21.9463 20.968C21.9463 20.742 21.8983 20.551 21.8023 20.395C21.7063 20.239 21.5543 20.161 21.3463 20.161C21.1603 20.161 21.0103 20.238 20.8963 20.392C20.7823 20.544 20.7253 20.742 20.7253 20.986ZM22.6372 22V19.96H22.8922L23.8072 21.244L23.9512 21.469V19.96H24.2422V22H23.9842L23.0392 20.659L22.9252 20.479V22H22.6372Z" fill="black"/>
<path d="M30.62 20.188H29.948V22H29.657V20.188H29.024V19.96H30.581C30.587 19.998 30.593 20.036 30.599 20.074C30.605 20.112 30.612 20.15 30.62 20.188ZM31.0996 21.244C31.0996 21.416 31.1456 21.551 31.2376 21.649C31.3296 21.747 31.4506 21.796 31.6006 21.796C31.7566 21.796 31.8786 21.746 31.9666 21.646C32.0546 21.546 32.0986 21.412 32.0986 21.244V19.96H32.3896V21.271C32.3896 21.489 32.3186 21.671 32.1766 21.817C32.0366 21.961 31.8446 22.033 31.6006 22.033C31.3566 22.033 31.1636 21.961 31.0216 21.817C30.8816 21.673 30.8116 21.491 30.8116 21.271V19.96H31.0996V21.244ZM32.8432 22V19.96H33.9922C34.0002 19.998 34.0062 20.035 34.0102 20.071C34.0162 20.107 34.0232 20.144 34.0312 20.182H33.1312V20.851H33.7042C33.7102 20.889 33.7162 20.927 33.7222 20.965C33.7282 21.001 33.7352 21.037 33.7432 21.073H33.1312V21.775H34.1002L34.1392 22H32.8432Z" fill="black"/>
<path d="M40.013 22L39.479 20.401L38.972 22H38.699L38.018 20.005L38.3 19.96L38.837 21.595L39.353 19.96H39.623L40.16 21.595L40.673 19.96H40.961L40.286 22H40.013ZM41.1656 22V19.96H42.3146C42.3226 19.998 42.3286 20.035 42.3326 20.071C42.3386 20.107 42.3456 20.144 42.3536 20.182H41.4536V20.851H42.0266C42.0326 20.889 42.0386 20.927 42.0446 20.965C42.0506 21.001 42.0576 21.037 42.0656 21.073H41.4536V21.775H42.4226L42.4616 22H41.1656ZM42.7309 22V19.96H43.4359C43.7519 19.96 43.9819 20.057 44.1259 20.251C44.2719 20.443 44.3449 20.682 44.3449 20.968C44.3449 21.266 44.2659 21.513 44.1079 21.709C43.9499 21.903 43.7219 22 43.4239 22H42.7309ZM43.4479 20.206H43.0189V21.76H43.4239C43.6119 21.76 43.7639 21.693 43.8799 21.559C43.9959 21.425 44.0539 21.229 44.0539 20.971C44.0539 20.745 44.0049 20.561 43.9069 20.419C43.8089 20.277 43.6559 20.206 43.4479 20.206Z" fill="black"/>
<path d="M10.62 29.188H9.948V31H9.657V29.188H9.024V28.96H10.581C10.587 28.998 10.593 29.036 10.599 29.074C10.605 29.112 10.612 29.15 10.62 29.188ZM12.0296 31V30.091H11.1236V31H10.8356V28.96L11.1236 28.945V29.86H12.0296V28.96H12.3176V31H12.0296ZM13.0545 30.244C13.0545 30.416 13.1005 30.551 13.1925 30.649C13.2845 30.747 13.4055 30.796 13.5555 30.796C13.7115 30.796 13.8335 30.746 13.9215 30.646C14.0095 30.546 14.0535 30.412 14.0535 30.244V28.96H14.3445V30.271C14.3445 30.489 14.2735 30.671 14.1315 30.817C13.9915 30.961 13.7995 31.033 13.5555 31.033C13.3115 31.033 13.1185 30.961 12.9765 30.817C12.8365 30.673 12.7665 30.491 12.7665 30.271V28.96H13.0545V30.244Z" fill="black"/>
<path d="M19.149 30.085H18.57V31H18.282V28.96H19.383L19.425 29.182H18.57V29.866H19.113L19.149 30.085ZM20.2476 29.203H19.9536V29.95H20.2326C20.3666 29.95 20.4806 29.923 20.5746 29.869C20.6706 29.813 20.7196 29.716 20.7216 29.578C20.7216 29.434 20.6776 29.336 20.5896 29.284C20.5036 29.23 20.3896 29.203 20.2476 29.203ZM20.8656 31L20.4096 30.175C20.3776 30.177 20.3456 30.179 20.3136 30.181C20.2836 30.183 20.2526 30.184 20.2206 30.184H19.9536V31H19.6656V28.96H20.2506C20.4666 28.96 20.6486 29.008 20.7966 29.104C20.9466 29.198 21.0216 29.352 21.0216 29.566C21.0196 29.7 20.9856 29.812 20.9196 29.902C20.8536 29.99 20.7686 30.056 20.6646 30.1L21.1776 31H20.8656ZM21.4653 31V28.96H21.7533V31H21.4653Z" fill="black"/>
<path d="M28.243 30.661C28.299 30.689 28.374 30.718 28.468 30.748C28.562 30.776 28.655 30.79 28.747 30.79C28.893 30.79 29.004 30.763 29.08 30.709C29.156 30.655 29.194 30.584 29.194 30.496C29.194 30.294 29.018 30.145 28.666 30.049C28.316 29.951 28.141 29.748 28.141 29.44C28.141 29.292 28.2 29.167 28.318 29.065C28.438 28.963 28.602 28.912 28.81 28.912C28.912 28.912 29.01 28.926 29.104 28.954C29.2 28.982 29.282 29.013 29.35 29.047C29.336 29.085 29.32 29.123 29.302 29.161C29.284 29.199 29.268 29.237 29.254 29.275C29.202 29.249 29.142 29.225 29.074 29.203C29.008 29.179 28.927 29.167 28.831 29.167C28.717 29.167 28.621 29.189 28.543 29.233C28.467 29.277 28.429 29.344 28.429 29.434C28.429 29.64 28.605 29.793 28.957 29.893C29.309 29.993 29.485 30.192 29.485 30.49C29.485 30.65 29.421 30.782 29.293 30.886C29.167 30.988 28.986 31.039 28.75 31.039C28.664 31.039 28.557 31.023 28.429 30.991C28.301 30.959 28.217 30.925 28.177 30.889C28.187 30.851 28.197 30.813 28.207 30.775C28.219 30.737 28.231 30.699 28.243 30.661ZM30.448 29.347L30.121 30.223H30.784L30.448 29.347ZM30.583 28.96L31.369 30.958L31.084 31L30.871 30.454H30.04L29.836 31H29.554L30.322 28.96H30.583ZM32.9175 29.188H32.2455V31H31.9545V29.188H31.3215V28.96H32.8785C32.8845 28.998 32.8905 29.036 32.8965 29.074C32.9025 29.112 32.9095 29.15 32.9175 29.188Z" fill="black"/>
</g>
<defs>
<filter id="filter0_d_169_1318" x="0" y="4.57764e-05" width="53" height="45.1182" filterUnits="userSpaceOnUse" color-interpolation-filters="sRGB">
<feFlood flood-opacity="0" result="BackgroundImageFix"/>
<feColorMatrix in="SourceAlpha" type="matrix" values="0 0 0 0 0 0 0 0 0 0 0 0 0 0 0 0 0 0 127 0" result="hardAlpha"/>
<feOffset dy="4"/>
<feGaussianBlur stdDeviation="2"/>
<feComposite in2="hardAlpha" operator="out"/>
<feColorMatrix type="matrix" values="0 0 0 0 0 0 0 0 0 0 0 0 0 0 0 0 0 0 0.25 0"/>
<feBlend mode="normal" in2="BackgroundImageFix" result="effect1_dropShadow_169_1318"/>
<feBlend mode="normal" in="SourceGraphic" in2="effect1_dropShadow_169_1318" result="shape"/>
</filter>
</defs>
</svg>
