<svg width="53" height="46" viewBox="0 0 53 46" fill="none" xmlns="http://www.w3.org/2000/svg">
<g filter="url(#filter0_d_169_1293)">
<path d="M4 10.3755C4 7.61408 6.23858 5.3755 9 5.3755H44C46.7614 5.3755 49 7.61408 49 10.3755V32.1182C49 34.8797 46.7614 37.1182 44 37.1182H9C6.23858 37.1182 4 34.8797 4 32.1182V10.3755Z" fill="#D9D9D9"/>
<path d="M4 10.3755C4 7.61408 6.23858 5.3755 9 5.3755H26.5V15.4585H4V10.3755Z" fill="#FF6D3A"/>
<path d="M26.5 5.3755H44C46.7614 5.3755 49 7.61408 49 10.3755V15.4585H26.5V5.3755Z" fill="#FF4E66"/>
<path d="M37.1064 10.9386C37.6503 10.8429 38.0137 10.3243 37.9179 9.78042C37.8222 9.2365 37.3036 8.87317 36.7597 8.9689L37.1064 10.9386ZM32.0546 6.79664L33.05 6.70133L32.0546 6.79664ZM36.2432 1.0028L36.2717 0.00321013L36.2432 1.0028ZM36.7597 8.9689C36.2834 9.05274 35.338 8.98148 34.5007 8.58708C33.6999 8.20987 33.1375 7.61473 33.05 6.70133L31.0591 6.89196C31.2335 8.71315 32.4205 9.818 33.6485 10.3964C34.84 10.9576 36.2029 11.0976 37.1064 10.9386L36.7597 8.9689ZM33.05 6.70133C32.9098 5.23668 33.0623 4.01468 33.534 3.20721C33.949 2.49676 34.696 1.95905 36.2147 2.0024L36.2717 0.00321013C34.1438 -0.0575239 32.6486 0.757817 31.8071 2.19837C31.0222 3.54191 30.9037 5.26887 31.0591 6.89196L33.05 6.70133ZM36.2147 2.0024C37.4751 2.03837 38.08 2.43081 38.4193 2.90352C38.8038 3.4391 39 4.28357 39 5.5H41C41 4.1491 40.7979 2.78721 40.044 1.73715C39.245 0.624215 37.9715 0.0517241 36.2717 0.00321013L36.2147 2.0024Z" fill="#102A47"/>
<path d="M17.1064 10.9386C17.6503 10.8429 18.0137 10.3243 17.9179 9.78042C17.8222 9.2365 17.3036 8.87317 16.7597 8.9689L17.1064 10.9386ZM12.0546 6.79664L13.05 6.70133L12.0546 6.79664ZM16.2432 1.0028L16.2717 0.00321013L16.2432 1.0028ZM16.7597 8.9689C16.2834 9.05274 15.338 8.98148 14.5007 8.58708C13.6999 8.20987 13.1375 7.61473 13.05 6.70133L11.0591 6.89196C11.2335 8.71315 12.4205 9.818 13.6485 10.3964C14.84 10.9576 16.2029 11.0976 17.1064 10.9386L16.7597 8.9689ZM13.05 6.70133C12.9098 5.23668 13.0623 4.01468 13.534 3.20721C13.949 2.49676 14.696 1.95905 16.2147 2.0024L16.2717 0.00321013C14.1438 -0.0575239 12.6486 0.757817 11.8071 2.19837C11.0222 3.54191 10.9037 5.26887 11.0591 6.89196L13.05 6.70133ZM16.2147 2.0024C17.4751 2.03837 18.08 2.43081 18.4193 2.90352C18.8038 3.4391 19 4.28357 19 5.5H21C21 4.1491 20.7979 2.78721 20.044 1.73715C19.245 0.624215 17.9715 0.0517241 16.2717 0.00321013L16.2147 2.0024Z" fill="#1C4C6A"/>
<path d="M10.3 20.541V18.96H10.588V20.595C10.588 20.725 10.558 20.824 10.498 20.892C10.44 20.958 10.33 21.016 10.168 21.066C10.15 21.032 10.131 20.998 10.111 20.964C10.093 20.928 10.074 20.893 10.054 20.859C10.156 20.821 10.222 20.784 10.252 20.748C10.284 20.712 10.3 20.643 10.3 20.541ZM11.191 20.58C11.191 20.636 11.211 20.688 11.251 20.736C11.291 20.784 11.352 20.808 11.434 20.808C11.508 20.808 11.577 20.79 11.641 20.754C11.707 20.718 11.765 20.672 11.815 20.616V20.322H11.461C11.373 20.322 11.306 20.348 11.26 20.4C11.214 20.452 11.191 20.512 11.191 20.58ZM11.02 19.635C11.076 19.597 11.157 19.566 11.263 19.542C11.369 19.518 11.453 19.506 11.515 19.506C11.683 19.506 11.823 19.553 11.935 19.647C12.047 19.741 12.103 19.863 12.103 20.013V21H11.941C11.927 20.978 11.914 20.955 11.902 20.931C11.89 20.907 11.878 20.884 11.866 20.862C11.816 20.906 11.752 20.946 11.674 20.982C11.596 21.018 11.518 21.036 11.44 21.036C11.268 21.036 11.14 20.993 11.056 20.907C10.974 20.821 10.933 20.712 10.933 20.58C10.933 20.434 10.982 20.323 11.08 20.247C11.18 20.169 11.309 20.13 11.467 20.13H11.812C11.812 20.03 11.792 19.944 11.752 19.872C11.712 19.8 11.635 19.764 11.521 19.764C11.435 19.764 11.357 19.775 11.287 19.797C11.217 19.817 11.155 19.839 11.101 19.863L11.02 19.635ZM12.6875 19.737C12.7495 19.669 12.8295 19.612 12.9275 19.566C13.0255 19.52 13.1165 19.497 13.2005 19.497C13.3785 19.497 13.5075 19.549 13.5875 19.653C13.6695 19.755 13.7105 19.884 13.7105 20.04V21H13.4225V20.067C13.4225 19.969 13.3985 19.891 13.3505 19.833C13.3045 19.775 13.2345 19.745 13.1405 19.743C13.0805 19.743 13.0105 19.762 12.9305 19.8C12.8505 19.838 12.7815 19.888 12.7235 19.95V21H12.4355V19.545H12.5975L12.6875 19.737Z" fill="black"/>
<path d="M20.149 20.085H19.57V21H19.282V18.96H20.383L20.425 19.182H19.57V19.866H20.113L20.149 20.085ZM21.8566 20.337H20.8246C20.8346 20.471 20.8766 20.581 20.9506 20.667C21.0246 20.753 21.1356 20.796 21.2836 20.796C21.3696 20.796 21.4416 20.787 21.4996 20.769C21.5596 20.749 21.6196 20.725 21.6796 20.697L21.7696 20.907C21.7056 20.951 21.6236 20.983 21.5236 21.003C21.4256 21.025 21.3456 21.036 21.2836 21.036C21.0396 21.036 20.8516 20.966 20.7196 20.826C20.5896 20.684 20.5246 20.499 20.5246 20.271C20.5246 20.045 20.5856 19.861 20.7076 19.719C20.8316 19.577 21.0026 19.506 21.2206 19.506C21.4566 19.506 21.6216 19.589 21.7156 19.755C21.8096 19.921 21.8566 20.115 21.8566 20.337ZM21.5776 20.142C21.5596 20.022 21.5216 19.927 21.4636 19.857C21.4056 19.787 21.3216 19.752 21.2116 19.752C21.0996 19.752 21.0116 19.788 20.9476 19.86C20.8836 19.93 20.8446 20.024 20.8306 20.142H21.5776ZM22.1212 21V18.915L22.4092 18.882V19.629C22.4672 19.591 22.5302 19.56 22.5982 19.536C22.6662 19.51 22.7302 19.497 22.7902 19.497C23.0042 19.497 23.1652 19.571 23.2732 19.719C23.3812 19.865 23.4352 20.048 23.4352 20.268C23.4352 20.488 23.3802 20.671 23.2702 20.817C23.1622 20.963 23.0022 21.036 22.7902 21.036C22.7222 21.036 22.6482 21.022 22.5682 20.994C22.4882 20.964 22.4162 20.924 22.3522 20.874L22.2832 21H22.1212ZM22.4092 20.664C22.4592 20.704 22.5132 20.736 22.5712 20.76C22.6292 20.782 22.6832 20.793 22.7332 20.793C22.8832 20.793 22.9882 20.741 23.0482 20.637C23.1102 20.531 23.1412 20.409 23.1412 20.271C23.1412 20.125 23.1122 20.001 23.0542 19.899C22.9962 19.795 22.8892 19.743 22.7332 19.743C22.6832 19.743 22.6292 19.755 22.5712 19.779C22.5132 19.801 22.4592 19.833 22.4092 19.875V20.664Z" fill="black"/>
<path d="M30.134 20.346L29.57 19.557V21H29.282V18.96H29.459L30.176 19.968L30.857 18.96H31.037V21H30.746V19.584L30.239 20.331L30.134 20.346ZM31.6383 20.58C31.6383 20.636 31.6583 20.688 31.6983 20.736C31.7383 20.784 31.7993 20.808 31.8813 20.808C31.9553 20.808 32.0243 20.79 32.0883 20.754C32.1543 20.718 32.2123 20.672 32.2623 20.616V20.322H31.9083C31.8203 20.322 31.7533 20.348 31.7073 20.4C31.6613 20.452 31.6383 20.512 31.6383 20.58ZM31.4673 19.635C31.5233 19.597 31.6043 19.566 31.7103 19.542C31.8163 19.518 31.9003 19.506 31.9623 19.506C32.1303 19.506 32.2703 19.553 32.3823 19.647C32.4943 19.741 32.5503 19.863 32.5503 20.013V21H32.3883C32.3743 20.978 32.3613 20.955 32.3493 20.931C32.3373 20.907 32.3253 20.884 32.3133 20.862C32.2633 20.906 32.1993 20.946 32.1213 20.982C32.0433 21.018 31.9653 21.036 31.8873 21.036C31.7153 21.036 31.5873 20.993 31.5033 20.907C31.4213 20.821 31.3803 20.712 31.3803 20.58C31.3803 20.434 31.4293 20.323 31.5273 20.247C31.6273 20.169 31.7563 20.13 31.9143 20.13H32.2593C32.2593 20.03 32.2393 19.944 32.1993 19.872C32.1593 19.8 32.0823 19.764 31.9683 19.764C31.8823 19.764 31.8043 19.775 31.7343 19.797C31.6643 19.817 31.6023 19.839 31.5483 19.863L31.4673 19.635ZM32.8827 21V19.545H33.0447L33.1377 19.752C33.1937 19.704 33.2637 19.658 33.3477 19.614C33.4338 19.568 33.5157 19.545 33.5937 19.545L33.6568 19.776C33.5767 19.776 33.4927 19.798 33.4047 19.842C33.3187 19.884 33.2407 19.939 33.1707 20.007V21H32.8827Z" fill="black"/>
<path d="M39.912 19.347L39.585 20.223H40.248L39.912 19.347ZM40.047 18.96L40.833 20.958L40.548 21L40.335 20.454H39.504L39.3 21H39.018L39.786 18.96H40.047ZM40.9806 21V19.545H41.1426L41.2356 19.752C41.2916 19.704 41.3616 19.658 41.4456 19.614C41.5316 19.568 41.6136 19.545 41.6916 19.545L41.7546 19.776C41.6746 19.776 41.5906 19.798 41.5026 19.842C41.4166 19.884 41.3386 19.939 41.2686 20.007V21H40.9806ZM42.2042 20.664C42.2542 20.704 42.3082 20.736 42.3662 20.76C42.4242 20.782 42.4782 20.793 42.5282 20.793C42.6782 20.793 42.7832 20.741 42.8432 20.637C42.9052 20.531 42.9362 20.409 42.9362 20.271C42.9362 20.125 42.9072 20.001 42.8492 19.899C42.7912 19.795 42.6842 19.743 42.5282 19.743C42.4782 19.743 42.4242 19.755 42.3662 19.779C42.3082 19.801 42.2542 19.833 42.2042 19.875V20.664ZM41.9162 21.657V19.545H42.0782L42.1412 19.668C42.2052 19.618 42.2782 19.577 42.3602 19.545C42.4422 19.513 42.5172 19.497 42.5852 19.497C42.7992 19.497 42.9602 19.571 43.0682 19.719C43.1762 19.865 43.2302 20.048 43.2302 20.268C43.2302 20.488 43.1752 20.671 43.0652 20.817C42.9572 20.963 42.7972 21.036 42.5852 21.036C42.5252 21.036 42.4612 21.024 42.3932 21C42.3252 20.978 42.2622 20.947 42.2042 20.907V21.624L41.9162 21.657Z" fill="black"/>
<path d="M11.134 26.346L10.57 25.557V27H10.282V24.96H10.459L11.176 25.968L11.857 24.96H12.037V27H11.746V25.584L11.239 26.331L11.134 26.346ZM12.6383 26.58C12.6383 26.636 12.6583 26.688 12.6983 26.736C12.7383 26.784 12.7993 26.808 12.8813 26.808C12.9553 26.808 13.0243 26.79 13.0883 26.754C13.1543 26.718 13.2123 26.672 13.2623 26.616V26.322H12.9083C12.8203 26.322 12.7533 26.348 12.7073 26.4C12.6613 26.452 12.6383 26.512 12.6383 26.58ZM12.4673 25.635C12.5233 25.597 12.6043 25.566 12.7103 25.542C12.8163 25.518 12.9003 25.506 12.9623 25.506C13.1303 25.506 13.2703 25.553 13.3823 25.647C13.4943 25.741 13.5503 25.863 13.5503 26.013V27H13.3883C13.3743 26.978 13.3613 26.955 13.3493 26.931C13.3373 26.907 13.3253 26.884 13.3133 26.862C13.2633 26.906 13.1993 26.946 13.1213 26.982C13.0433 27.018 12.9653 27.036 12.8873 27.036C12.7153 27.036 12.5873 26.993 12.5033 26.907C12.4213 26.821 12.3803 26.712 12.3803 26.58C12.3803 26.434 12.4293 26.323 12.5273 26.247C12.6273 26.169 12.7563 26.13 12.9143 26.13H13.2593C13.2593 26.03 13.2393 25.944 13.1993 25.872C13.1593 25.8 13.0823 25.764 12.9683 25.764C12.8823 25.764 12.8043 25.775 12.7343 25.797C12.6643 25.817 12.6023 25.839 12.5483 25.863L12.4673 25.635ZM10.366 30.284C10.316 30.284 10.274 30.267 10.24 30.233C10.206 30.197 10.189 30.154 10.189 30.104C10.187 30.054 10.203 30.012 10.237 29.978C10.273 29.942 10.316 29.924 10.366 29.924C10.416 29.924 10.459 29.942 10.495 29.978C10.531 30.012 10.549 30.054 10.549 30.104C10.549 30.154 10.531 30.197 10.495 30.233C10.459 30.267 10.416 30.284 10.366 30.284ZM10.222 32V30.545H10.513V32H10.222Z" fill="black"/>
<path d="M19.3 26.541V24.96H19.588V26.595C19.588 26.725 19.558 26.824 19.498 26.892C19.44 26.958 19.33 27.016 19.168 27.066C19.15 27.032 19.131 26.998 19.111 26.964C19.093 26.928 19.074 26.893 19.054 26.859C19.156 26.821 19.222 26.784 19.252 26.748C19.284 26.712 19.3 26.643 19.3 26.541ZM20.974 26.847C20.91 26.907 20.833 26.956 20.743 26.994C20.655 27.03 20.572 27.048 20.494 27.048C20.316 27.048 20.186 26.997 20.104 26.895C20.024 26.791 19.984 26.661 19.984 26.505V25.545H20.275V26.484C20.275 26.578 20.298 26.655 20.344 26.715C20.392 26.773 20.462 26.802 20.554 26.802C20.608 26.802 20.67 26.788 20.74 26.76C20.81 26.73 20.875 26.69 20.935 26.64V25.545H21.223V27H21.058L20.974 26.847ZM21.8222 25.737C21.8842 25.669 21.9642 25.612 22.0622 25.566C22.1602 25.52 22.2512 25.497 22.3352 25.497C22.5132 25.497 22.6423 25.549 22.7222 25.653C22.8043 25.755 22.8453 25.884 22.8453 26.04V27H22.5572V26.067C22.5572 25.969 22.5332 25.891 22.4852 25.833C22.4392 25.775 22.3692 25.745 22.2753 25.743C22.2153 25.743 22.1452 25.762 22.0652 25.8C21.9852 25.838 21.9162 25.888 21.8582 25.95V27H21.5702V25.545H21.7322L21.8222 25.737Z" fill="black"/>
<path d="M29.3 26.541V24.96H29.588V26.595C29.588 26.725 29.558 26.824 29.498 26.892C29.44 26.958 29.33 27.016 29.168 27.066C29.15 27.032 29.131 26.998 29.111 26.964C29.093 26.928 29.074 26.893 29.054 26.859C29.156 26.821 29.222 26.784 29.252 26.748C29.284 26.712 29.3 26.643 29.3 26.541ZM30.974 26.847C30.91 26.907 30.833 26.956 30.743 26.994C30.655 27.03 30.572 27.048 30.494 27.048C30.316 27.048 30.186 26.997 30.104 26.895C30.024 26.791 29.984 26.661 29.984 26.505V25.545H30.275V26.484C30.275 26.578 30.298 26.655 30.344 26.715C30.392 26.773 30.462 26.802 30.554 26.802C30.608 26.802 30.67 26.788 30.74 26.76C30.81 26.73 30.875 26.69 30.935 26.64V25.545H31.223V27H31.058L30.974 26.847ZM31.5792 27V24.915L31.8672 24.882V27H31.5792Z" fill="black"/>
<path d="M39.912 25.347L39.585 26.223H40.248L39.912 25.347ZM40.047 24.96L40.833 26.958L40.548 27L40.335 26.454H39.504L39.3 27H39.018L39.786 24.96H40.047ZM41.9526 26.847C41.8886 26.907 41.8116 26.956 41.7216 26.994C41.6336 27.03 41.5506 27.048 41.4726 27.048C41.2946 27.048 41.1646 26.997 41.0826 26.895C41.0026 26.791 40.9626 26.661 40.9626 26.505V25.545H41.2536V26.484C41.2536 26.578 41.2766 26.655 41.3226 26.715C41.3706 26.773 41.4406 26.802 41.5326 26.802C41.5866 26.802 41.6486 26.788 41.7186 26.76C41.7886 26.73 41.8536 26.69 41.9136 26.64V25.545H42.2016V27H42.0366L41.9526 26.847ZM43.5118 25.884C43.4578 25.84 43.4008 25.806 43.3408 25.782C43.2828 25.756 43.2268 25.743 43.1728 25.743C43.0228 25.743 42.9168 25.796 42.8548 25.902C42.7948 26.008 42.7648 26.13 42.7648 26.268C42.7648 26.414 42.7938 26.538 42.8518 26.64C42.9098 26.742 43.0168 26.793 43.1728 26.793C43.2268 26.793 43.2828 26.781 43.3408 26.757C43.4008 26.731 43.4578 26.696 43.5118 26.652V25.884ZM43.8028 27.078C43.8028 27.238 43.7478 27.371 43.6378 27.477C43.5278 27.585 43.3608 27.639 43.1368 27.639C43.0748 27.639 42.9898 27.626 42.8818 27.6C42.7758 27.576 42.6888 27.541 42.6208 27.495C42.6348 27.461 42.6488 27.426 42.6628 27.39C42.6788 27.356 42.6938 27.322 42.7078 27.288C42.7778 27.32 42.8428 27.347 42.9028 27.369C42.9648 27.393 43.0398 27.405 43.1278 27.405C43.2478 27.405 43.3418 27.377 43.4098 27.321C43.4778 27.265 43.5118 27.183 43.5118 27.075V26.901C43.4518 26.943 43.3858 26.976 43.3138 27C43.2418 27.024 43.1748 27.036 43.1128 27.036C42.9008 27.036 42.7408 26.964 42.6328 26.82C42.5248 26.674 42.4708 26.491 42.4708 26.271C42.4708 26.049 42.5258 25.865 42.6358 25.719C42.7478 25.571 42.9098 25.497 43.1218 25.497C43.1918 25.497 43.2678 25.514 43.3498 25.548C43.4338 25.58 43.5068 25.622 43.5688 25.674L43.6378 25.545H43.8028V27.078Z" fill="black"/>
<path d="M10.243 32.661C10.299 32.689 10.374 32.718 10.468 32.748C10.562 32.776 10.655 32.79 10.747 32.79C10.893 32.79 11.004 32.763 11.08 32.709C11.156 32.655 11.194 32.584 11.194 32.496C11.194 32.294 11.018 32.145 10.666 32.049C10.316 31.951 10.141 31.748 10.141 31.44C10.141 31.292 10.2 31.167 10.318 31.065C10.438 30.963 10.602 30.912 10.81 30.912C10.912 30.912 11.01 30.926 11.104 30.954C11.2 30.982 11.282 31.013 11.35 31.047C11.336 31.085 11.32 31.123 11.302 31.161C11.284 31.199 11.268 31.237 11.254 31.275C11.202 31.249 11.142 31.225 11.074 31.203C11.008 31.179 10.927 31.167 10.831 31.167C10.717 31.167 10.621 31.189 10.543 31.233C10.467 31.277 10.429 31.344 10.429 31.434C10.429 31.64 10.605 31.793 10.957 31.893C11.309 31.993 11.485 32.192 11.485 32.49C11.485 32.65 11.421 32.782 11.293 32.886C11.167 32.988 10.986 33.039 10.75 33.039C10.664 33.039 10.557 33.023 10.429 32.991C10.301 32.959 10.217 32.925 10.177 32.889C10.187 32.851 10.197 32.813 10.207 32.775C10.219 32.737 10.231 32.699 10.243 32.661ZM13.009 32.337H11.977C11.987 32.471 12.029 32.581 12.103 32.667C12.177 32.753 12.288 32.796 12.436 32.796C12.522 32.796 12.594 32.787 12.652 32.769C12.712 32.749 12.772 32.725 12.832 32.697L12.922 32.907C12.858 32.951 12.776 32.983 12.676 33.003C12.578 33.025 12.498 33.036 12.436 33.036C12.192 33.036 12.004 32.966 11.872 32.826C11.742 32.684 11.677 32.499 11.677 32.271C11.677 32.045 11.738 31.861 11.86 31.719C11.984 31.577 12.155 31.506 12.373 31.506C12.609 31.506 12.774 31.589 12.868 31.755C12.962 31.921 13.009 32.115 13.009 32.337ZM12.73 32.142C12.712 32.022 12.674 31.927 12.616 31.857C12.558 31.787 12.474 31.752 12.364 31.752C12.252 31.752 12.164 31.788 12.1 31.86C12.036 31.93 11.997 32.024 11.983 32.142H12.73ZM13.5616 32.664C13.6116 32.704 13.6656 32.736 13.7236 32.76C13.7816 32.782 13.8356 32.793 13.8856 32.793C14.0356 32.793 14.1406 32.741 14.2006 32.637C14.2626 32.531 14.2936 32.409 14.2936 32.271C14.2936 32.125 14.2646 32.001 14.2066 31.899C14.1486 31.795 14.0416 31.743 13.8856 31.743C13.8356 31.743 13.7816 31.755 13.7236 31.779C13.6656 31.801 13.6116 31.833 13.5616 31.875V32.664ZM13.2736 33.657V31.545H13.4356L13.4986 31.668C13.5626 31.618 13.6356 31.577 13.7176 31.545C13.7996 31.513 13.8746 31.497 13.9426 31.497C14.1566 31.497 14.3176 31.571 14.4256 31.719C14.5336 31.865 14.5876 32.048 14.5876 32.268C14.5876 32.488 14.5326 32.671 14.4226 32.817C14.3146 32.963 14.1546 33.036 13.9426 33.036C13.8826 33.036 13.8186 33.024 13.7506 33C13.6826 32.978 13.6196 32.947 13.5616 32.907V33.624L13.2736 33.657Z" fill="black"/>
<path d="M19.195 31.989C19.195 31.683 19.273 31.429 19.429 31.227C19.587 31.023 19.814 30.918 20.11 30.912C20.426 30.912 20.657 31.017 20.803 31.227C20.949 31.435 21.022 31.682 21.022 31.968C21.022 32.266 20.943 32.519 20.785 32.727C20.627 32.933 20.399 33.038 20.101 33.042C19.787 33.042 19.557 32.938 19.411 32.73C19.267 32.522 19.195 32.275 19.195 31.989ZM19.495 31.986C19.495 32.214 19.543 32.406 19.639 32.562C19.737 32.718 19.89 32.796 20.098 32.796C20.288 32.796 20.438 32.723 20.548 32.577C20.66 32.431 20.716 32.228 20.716 31.968C20.716 31.742 20.668 31.551 20.572 31.395C20.476 31.239 20.324 31.161 20.116 31.161C19.93 31.161 19.78 31.238 19.666 31.392C19.552 31.544 19.495 31.742 19.495 31.986ZM21.9678 31.752C21.8318 31.752 21.7298 31.802 21.6618 31.902C21.5958 32 21.5618 32.122 21.5598 32.268C21.5598 32.42 21.5918 32.546 21.6558 32.646C21.7198 32.744 21.8208 32.793 21.9588 32.793C22.0468 32.793 22.1158 32.784 22.1658 32.766C22.2178 32.748 22.2748 32.724 22.3368 32.694L22.4238 32.901C22.3598 32.945 22.2818 32.979 22.1898 33.003C22.0978 33.027 22.0208 33.039 21.9588 33.039C21.7348 33.039 21.5628 32.968 21.4428 32.826C21.3248 32.684 21.2658 32.499 21.2658 32.271C21.2678 32.045 21.3288 31.861 21.4488 31.719C21.5708 31.577 21.7448 31.506 21.9708 31.506C22.0308 31.506 22.1058 31.519 22.1958 31.545C22.2878 31.569 22.3658 31.603 22.4298 31.647L22.3458 31.851C22.2838 31.825 22.2268 31.802 22.1748 31.782C22.1228 31.762 22.0538 31.752 21.9678 31.752ZM23.4127 32.988C23.3867 33.002 23.3497 33.016 23.3017 33.03C23.2557 33.044 23.2107 33.051 23.1667 33.051C23.0247 33.051 22.9117 33.012 22.8277 32.934C22.7437 32.856 22.7017 32.743 22.7017 32.595V31.782H22.4977L22.4947 31.563H22.7017V31.2L22.9897 31.134V31.563H23.2537L23.3437 31.782H22.9897V32.55C22.9897 32.624 23.0057 32.685 23.0377 32.733C23.0717 32.779 23.1247 32.802 23.1967 32.802C23.2207 32.802 23.2447 32.799 23.2687 32.793C23.2947 32.785 23.3177 32.777 23.3377 32.769L23.4127 32.988Z" fill="black"/>
<path d="M29.282 33V30.96H29.537L30.452 32.244L30.596 32.469V30.96H30.887V33H30.629L29.684 31.659L29.57 31.479V33H29.282ZM31.888 33.039C31.668 33.037 31.501 32.965 31.387 32.823C31.273 32.679 31.216 32.494 31.216 32.268C31.218 32.044 31.28 31.862 31.402 31.722C31.524 31.58 31.695 31.508 31.915 31.506C32.143 31.506 32.315 31.579 32.431 31.725C32.549 31.869 32.608 32.055 32.608 32.283C32.608 32.509 32.544 32.691 32.416 32.829C32.288 32.967 32.112 33.037 31.888 33.039ZM32.317 32.283C32.317 32.127 32.286 32 32.224 31.902C32.162 31.802 32.062 31.752 31.924 31.752C31.786 31.752 31.683 31.799 31.615 31.893C31.547 31.985 31.512 32.109 31.51 32.265C31.51 32.427 31.539 32.556 31.597 32.652C31.657 32.746 31.756 32.793 31.894 32.793C32.03 32.793 32.134 32.748 32.206 32.658C32.278 32.568 32.315 32.443 32.317 32.283ZM33.2578 33L32.6998 31.587L32.9938 31.545L33.3958 32.595L33.7798 31.545H34.0768L33.5248 33H33.2578Z" fill="black"/>
<path d="M39.282 33V30.96H39.987C40.303 30.96 40.533 31.057 40.677 31.251C40.823 31.443 40.896 31.682 40.896 31.968C40.896 32.266 40.817 32.513 40.659 32.709C40.501 32.903 40.273 33 39.975 33H39.282ZM39.999 31.206H39.57V32.76H39.975C40.163 32.76 40.315 32.693 40.431 32.559C40.547 32.425 40.605 32.229 40.605 31.971C40.605 31.745 40.556 31.561 40.458 31.419C40.36 31.277 40.207 31.206 39.999 31.206ZM42.4777 32.337H41.4457C41.4557 32.471 41.4977 32.581 41.5717 32.667C41.6457 32.753 41.7567 32.796 41.9047 32.796C41.9907 32.796 42.0627 32.787 42.1207 32.769C42.1807 32.749 42.2407 32.725 42.3007 32.697L42.3907 32.907C42.3267 32.951 42.2447 32.983 42.1447 33.003C42.0467 33.025 41.9667 33.036 41.9047 33.036C41.6607 33.036 41.4727 32.966 41.3407 32.826C41.2107 32.684 41.1457 32.499 41.1457 32.271C41.1457 32.045 41.2067 31.861 41.3287 31.719C41.4527 31.577 41.6237 31.506 41.8417 31.506C42.0777 31.506 42.2427 31.589 42.3367 31.755C42.4307 31.921 42.4777 32.115 42.4777 32.337ZM42.1987 32.142C42.1807 32.022 42.1427 31.927 42.0847 31.857C42.0267 31.787 41.9427 31.752 41.8327 31.752C41.7207 31.752 41.6327 31.788 41.5687 31.86C41.5047 31.93 41.4657 32.024 41.4517 32.142H42.1987ZM43.3573 31.752C43.2213 31.752 43.1193 31.802 43.0513 31.902C42.9853 32 42.9513 32.122 42.9493 32.268C42.9493 32.42 42.9813 32.546 43.0453 32.646C43.1093 32.744 43.2103 32.793 43.3483 32.793C43.4363 32.793 43.5053 32.784 43.5553 32.766C43.6073 32.748 43.6643 32.724 43.7263 32.694L43.8133 32.901C43.7493 32.945 43.6713 32.979 43.5793 33.003C43.4873 33.027 43.4103 33.039 43.3483 33.039C43.1243 33.039 42.9523 32.968 42.8323 32.826C42.7143 32.684 42.6553 32.499 42.6553 32.271C42.6573 32.045 42.7183 31.861 42.8383 31.719C42.9603 31.577 43.1343 31.506 43.3603 31.506C43.4203 31.506 43.4953 31.519 43.5853 31.545C43.6773 31.569 43.7553 31.603 43.8193 31.647L43.7353 31.851C43.6733 31.825 43.6163 31.802 43.5643 31.782C43.5123 31.762 43.4433 31.752 43.3573 31.752Z" fill="black"/>
</g>
<defs>
<filter id="filter0_d_169_1293" x="0" y="4.57764e-05" width="53" height="45.1182" filterUnits="userSpaceOnUse" color-interpolation-filters="sRGB">
<feFlood flood-opacity="0" result="BackgroundImageFix"/>
<feColorMatrix in="SourceAlpha" type="matrix" values="0 0 0 0 0 0 0 0 0 0 0 0 0 0 0 0 0 0 127 0" result="hardAlpha"/>
<feOffset dy="4"/>
<feGaussianBlur stdDeviation="2"/>
<feComposite in2="hardAlpha" operator="out"/>
<feColorMatrix type="matrix" values="0 0 0 0 0 0 0 0 0 0 0 0 0 0 0 0 0 0 0.25 0"/>
<feBlend mode="normal" in2="BackgroundImageFix" result="effect1_dropShadow_169_1293"/>
<feBlend mode="normal" in="SourceGraphic" in2="effect1_dropShadow_169_1293" result="shape"/>
</filter>
</defs>
</svg>
