<svg width="20" height="26" viewBox="0 0 20 26" fill="none" xmlns="http://www.w3.org/2000/svg">
<path d="M13.3333 10.9897L15.0447 12.008L17.3614 9.15218" stroke="#009A3E"/>
<path d="M13.4773 16.7233L15.1887 17.7416L17.5053 14.8858" stroke="#009A3E"/>
<path d="M13.0737 4.80435H6.92633C6.4761 4.80435 6.11111 4.43936 6.11111 3.98913C6.11111 3.5389 6.4761 3.17391 6.92633 3.17391H7.33334C7.88562 3.17391 8.32661 2.71455 8.5136 2.19489C8.73009 1.59323 9.17242 1 10 1C10.889 1 11.2923 1.68451 11.4898 2.32868C11.6353 2.80334 12.0348 3.17391 12.5312 3.17391H13.0737C13.5239 3.17391 13.8889 3.5389 13.8889 3.98913C13.8889 4.43936 13.5239 4.80435 13.0737 4.80435Z" stroke="#009A3E"/>
<rect x="0.5" y="3.13044" width="19" height="22.3696" rx="1.5" stroke="#009A3E"/>
<line x1="2.77777" y1="11.9131" x2="12.2222" y2="11.9131" stroke="#009A3E"/>
<line x1="2.77777" y1="17.8913" x2="12.2222" y2="17.8913" stroke="#009A3E"/>
</svg>
