<svg width="27" height="27" viewBox="0 0 27 27" fill="none" xmlns="http://www.w3.org/2000/svg">
<path d="M13.5 26C20.4036 26 26 20.4036 26 13.5C26 6.59644 20.4036 1 13.5 1C6.59644 1 1 6.59644 1 13.5C1 20.4036 6.59644 26 13.5 26Z" stroke="#FF9900" stroke-width="2" stroke-linecap="round" stroke-linejoin="round"/>
<path d="M13.5 14.8889C15.8012 14.8889 17.6667 13.0234 17.6667 10.7222C17.6667 8.42102 15.8012 6.55554 13.5 6.55554C11.1988 6.55554 9.33332 8.42102 9.33332 10.7222C9.33332 13.0234 11.1988 14.8889 13.5 14.8889Z" stroke="#FF9900" stroke-width="2" stroke-linecap="round" stroke-linejoin="round"/>
<path d="M5.40002 23.0125C5.74379 21.8684 6.4472 20.8655 7.40592 20.1527C8.36464 19.4399 9.52759 19.0552 10.7222 19.0555H16.2778C17.474 19.0551 18.6384 19.4408 19.5978 20.1552C20.5572 20.8697 21.2604 21.8747 21.6028 23.0208" stroke="#FF9900" stroke-width="2" stroke-linecap="round" stroke-linejoin="round"/>
</svg>
