<svg width="29" height="28" viewBox="0 0 29 28" fill="none" xmlns="http://www.w3.org/2000/svg">
<path d="M18.2461 20.9099L20.3723 18.5769L26.8079 24.2656L24.6817 26.5986L18.2461 20.9099L18.2461 20.9099Z" stroke="#0070AE" stroke-width="2"/>
<path d="M14.9236 16.8281L16.4042 15.2242L20.2351 18.6542L18.7545 20.2581L14.9236 16.8281Z" fill="#0070AE"/>
<path d="M18.0664 9.94106C18.0664 14.919 14.2069 18.8821 9.53322 18.8821C4.85952 18.8821 1 14.919 1 9.94106C1 4.96315 4.85952 1 9.53322 1C14.2069 1 18.0664 4.96315 18.0664 9.94106Z" stroke="#0070AE" stroke-width="2"/>
<path d="M9.13164 9.07416C12.2219 9.07416 12.222 4.20459 9.1317 4.20459C6.04137 4.20459 6.04121 9.07416 9.13164 9.07416Z" stroke="#0070AE" stroke-width="2" stroke-linecap="round"/>
<path d="M4.80524 13.9437C4.80524 10.2916 7.27748 9.68286 9.74972 9.68286C12.222 9.68286 14.0761 10.2916 14.0761 13.9437" stroke="#0070AE" stroke-width="2" stroke-linecap="round"/>
</svg>
